<svg id="Layer_1" data-name="Layer 1" xmlns="http://www.w3.org/2000/svg" viewBox="0 0 47.3 46.5"><defs><style>.cls-1{fill:none;stroke:#008a6f;stroke-linecap:round;stroke-linejoin:round;stroke-width:2px;}</style></defs><title>communication</title><path class="cls-1" d="M41.5,32.6l-9.3,9.3a1.9,1.9,0,0,1-2.8,0l-9.3-9.3a1.9,1.9,0,0,1,0-2.8l9.3-9.3a1.9,1.9,0,0,1,2.8,0l9.3,9.3A1.9,1.9,0,0,1,41.5,32.6Z" transform="translate(-8.4 -8.8)"/><path class="cls-1" d="M28.3,40.8,16.9,52.2a1.9,1.9,0,0,1-2.8,0L10,48.1a1.9,1.9,0,0,1,0-2.8L21.4,33.9Z" transform="translate(-8.4 -8.8)"/><path class="cls-1" d="M40.4,28.7,51.8,17.3a1.9,1.9,0,0,0,0-2.8l-4.1-4.1a1.9,1.9,0,0,0-2.8,0L33.5,21.8Z" transform="translate(-8.4 -8.8)"/><path class="cls-1" d="M36.8,37.1c-3.5,3.5-3.2,9.4.4,13L49.8,37.5C46.2,34,40.2,33.7,36.8,37.1Z" transform="translate(-8.4 -8.8)"/><path class="cls-1" d="M45.2,45.6a2.3,2.3,0,0,0,0-3.5l-3.5,3.5A2.3,2.3,0,0,0,45.2,45.6Z" transform="translate(-8.4 -8.8)"/><path class="cls-1" d="M54.6,46.7c.3,1.7-.7,3.8-2.2,5.3a6.9,6.9,0,0,1-5.5,2.2" transform="translate(-8.4 -8.8)"/><path class="cls-1" d="M50.5,45.5a3.8,3.8,0,0,1-1.4,3.3c-.9.9-2.3,1.6-3.3,1.3" transform="translate(-8.4 -8.8)"/></svg>