<?xml version="1.0"?>
<!--Icons from directory ""-->
<svg xmlns="http://www.w3.org/2000/svg" width="64" height="1344" viewBox="0 0 64 1344"><svg xmlns:xlink="http://www.w3.org/1999/xlink" id="air_conditioning" xml:space="preserve" height="64" viewBox="0 0 64 64" width="64" version="1.1" y="0" x="0px" enable-background="new 0 0 64 64"><g stroke-linejoin="round" stroke="#333" stroke-linecap="round" stroke-miterlimit="10" stroke-width="2" fill="none">			<line x1="45.9" y2="24.9" x2="44.1" y1="18.4"/>			<line x1="50.7" y2="24.9" x2="44.1" y1="26.8"/>			<line x1="13.1" y2="38.9" x2="19.6" y1="37.1"/>			<line x1="17.8" y2="38.9" x2="19.6" y1="45.4"/>			<line x1="12.1" y2="20.8" x2="51.9" y1="43.4"/>			<line x1="18.1" y2="24.9" x2="19.9" y1="18.4"/>			<line x1="13.3" y2="24.9" x2="19.9" y1="26.8"/>			<line x1="50.9" y2="38.9" x2="44.4" y1="37.1"/>			<line x1="46.2" y2="38.9" x2="44.4" y1="45.4"/>			<line x1="51.9" y2="20.8" x2="12.1" y1="43.4"/>			<line x1="36.7" y2="17.9" x2="32" y1="13.1"/>			<line x1="27.1" y2="17.9" x2="32" y1="13.2"/>			<line x1="37" y2="46.1" x2="32.2" y1="50.9"/>			<line x1="27.4" y2="46.1" x2="32.2" y1="50.9"/>			<line x1="32" y2="9.1" x2="31.7" y1="54.9"/></g></svg><svg xmlns:xlink="http://www.w3.org/1999/xlink" id="bathroom" xml:space="preserve" height="64" viewBox="0 0 64 64" width="64" version="1.1" y="64" x="0px" enable-background="new 0 0 64 64"><g stroke-linejoin="round" stroke="#333" stroke-linecap="round" stroke-miterlimit="10" stroke-width="2" fill="none">	<path d="m53 35.8h-42c-1.4 0-2.5-1.1-2.5-2.5s1.1-2.5 2.5-2.5h42c1.4 0 2.5 1.1 2.5 2.5s-1.1 2.5-2.5 2.5z"/>	<path d="m53.9 35.8h-43.8l1 7c0 4.1 3.3 7.4 7.4 7.4h27c4.1 0 7.4-3.3 7.4-7.4l1-7z"/>	<path d="m12.8 47.6l-1.3 3.3c-0.5 1.1 0.1 2.5 1.3 2.9 1.1 0.5 2.5-0.1 2.9-1.3l1-2.6c-1.5-0.3-2.9-1.1-3.9-2.3z"/>	<path d="m51.2 47.6l1.3 3.3c0.5 1.1-0.1 2.5-1.3 2.9-1.1 0.5-2.5-0.1-2.9-1.3l-1-2.6c1.5-0.3 2.9-1.1 3.9-2.3z"/>	<path d="m11.5 30v-14c0-3.3 2.7-6 6-6 2.1 0 3.9 1 5 2.6"/>	<path d="m29 16.9h-11.5l0.2-0.4c1.1-2 3.2-3.3 5.5-3.3s4.4 1.3 5.5 3.3l0.3 0.4z"/>			<line x1="18" y2="22" x2="18" y1="21"/>			<line x1="24" y2="22" x2="24" y1="21"/>			<line x1="21" y2="26" x2="21" y1="25"/>			<line x1="27" y2="26" x2="27" y1="25"/>			<line x1="30" y2="22" x2="30" y1="21"/></g></svg><svg xmlns:xlink="http://www.w3.org/1999/xlink" id="big_bed" xml:space="preserve" height="64" viewBox="0 0 64 64" width="64" version="1.1" y="128" x="0px" enable-background="new 0 0 64 64"><g stroke-linejoin="round" stroke="#333" stroke-linecap="round" stroke-miterlimit="10" stroke-width="2" fill="none">		<rect height="8.4" width="47.3" y="38.3" x="8.3"/>		<line x1="12" y2="51" x2="12" y1="47"/>		<line x1="52" y2="51" x2="52" y1="47"/>	<path d="m27.7 29.8h-7.8c-0.6 0-1-0.4-1-1v-4c0-0.6 0.4-1 1-1h7.8c0.6 0 1 0.4 1 1v4c0 0.5-0.5 1-1 1z"/>	<path d="m43.7 29.8h-7.8c-0.6 0-1-0.4-1-1v-4c0-0.6 0.4-1 1-1h7.8c0.6 0 1 0.4 1 1v4c0 0.5-0.5 1-1 1z"/>		<polyline points="19 27 13.8 27 8.3 38 55.7 38 50.2 27 45 27"/>		<line x1="35" y2="27" x2="29" y1="27"/>	<path d="m45 27h5v-11.9c0-1.1-0.7-2.1-1.8-2.1h-32.4c-1.1 0-1.8 1-1.8 2.1v11.9h5"/>		<line x1="29" y2="27" x2="35" y1="27"/></g></svg><svg xmlns:xlink="http://www.w3.org/1999/xlink" id="breakfast" xml:space="preserve" height="64" viewBox="0 0 64 64" width="64" version="1.1" y="192" x="0px" enable-background="new 0 0 64 64"><g stroke-linejoin="round" stroke="#333" stroke-linecap="round" stroke-miterlimit="10" stroke-width="2" fill="none">	<path d="m50.2 47.5c0 1.5-1.2 2.5-2.7 2.5h-30.9c-1.5 0-2.7-1-2.7-2.5l0.9-16.4c0-1.5 1.2-3.1 2.7-3.1h29.1c1.5 0 2.7 1.5 2.7 3.1l0.9 16.4z"/>		<line x1="15" y2="45" x2="50" y1="45"/>		<rect height="3" width="6" y="50" x="16"/>		<rect height="3" width="6" y="50" x="42"/>		<path d="m37 28v-7.7s4.2-1.5 3-5.3c-1.2-3.6-5.9-4.1-11-4.1h0.2c-5.1 0-9.9 0.4-11 4.1-1.2 3.8 2.8 5.3 2.8 5.3v7.7"/>			<path d="m47 15.2c-1.2-3.6-5.8-3.9-10.8-3.9-1.2 0-2.4 0-3.5 0.1 3.5 0.2 6.5 1.1 7.4 3.8 1.2 3.7-3 5.1-3 5.1v7.7h7v-7.7c-0.1 0 4.1-1.3 2.9-5.1z"/>			<path d="m36.1 11.4h0.1 0.1-0.2z"/></g></svg><svg xmlns:xlink="http://www.w3.org/1999/xlink" id="classroom" xml:space="preserve" height="64" viewBox="0 0 64 64" width="64" version="1.1" y="256" x="0px" enable-background="new 0 0 64 64"><g stroke-linejoin="round" stroke="#333" stroke-linecap="round" stroke-miterlimit="10" stroke-width="2" fill="none">		<path d="m9.9 40.4h44.2c0.6 0 1 0.4 1 1v2.7c0 0.6-0.4 1-1 1h-44.2c-0.6 0-1-0.4-1-1v-2.7c0-0.6 0.5-1 1-1z"/>		<path d="m35.1 8.9h-6.2c-0.6 0-1 0.4-1 1v3.7h8.2v-3.7c0-0.5-0.5-1-1-1z"/>		<path d="m51.6 13.6h-39.2c-0.6 0-1 0.4-1 1v25.8h41.2v-25.8c0-0.5-0.5-1-1-1z"/>		<line x1="32" y2="45" x2="32" y1="55"/>		<line x1="21.7" y2="45.1" x2="27" y1="55.1"/>		<line x1="43.2" y2="45.1" x2="37.8" y1="55.1"/></g></svg><svg xmlns:xlink="http://www.w3.org/1999/xlink" id="coffee" xml:space="preserve" height="64" viewBox="0 0 64 64" width="64" version="1.1" y="320" x="0px" enable-background="new 0 0 64 64"><g stroke-linejoin="round" stroke="#333" stroke-linecap="round" stroke-miterlimit="10" stroke-width="2" fill="none">	<path d="m48.4 29.3s6.3-0.8 6.3 6.3-9.2 7.5-9.2 7.5"/>		<path d="m37 9.1c1.1 1.3 1.2 3.3 0.2 4.7s-0.9 3.2 0.1 4.6"/>		<path d="m29 9.1c1.1 1.3 1.2 3.3 0.2 4.7s-0.9 3.2 0.1 4.6"/>		<path d="m21 9.1c1.1 1.3 1.2 3.3 0.2 4.7s-0.9 3.2 0.1 4.6"/>	<path d="m39.6 54.9h-18.3c-4.4 0-8.7-1.5-11.9-4.1h42.2c-3.3 2.6-7.5 4.1-12 4.1z"/>	<path d="m38.3 50.2c3.8-3 6.5-6.1 7.3-10.7l2.1-13.3h-35.1l2.1 13.3c0.7 4.5 3.5 7.7 7.3 10.7"/></g></svg><svg xmlns:xlink="http://www.w3.org/1999/xlink" id="computer_room" xml:space="preserve" height="64" viewBox="0 0 64 64" width="64" version="1.1" y="384" x="0px" enable-background="new 0 0 64 64">	<g stroke-linejoin="round" stroke="#333" stroke-linecap="round" stroke-miterlimit="10" stroke-width="2" fill="none">			<path d="m16.6 26.2v-8.5c0-1 0.8-1.9 1.9-1.9h38.4c1 0 1.9 0.8 1.9 1.9v22.7c0 1-0.8 1.9-1.9 1.9h-18.4"/>				<polyline points="44.3 42.4 44.3 48.1 34.4 48.1"/>				<line x1="29" y2="48" x2="48" y1="48"/>			<line x1="39" y2="37" x2="59" y1="37"/>	</g>		<g stroke-linejoin="round" stroke="#333" stroke-linecap="round" stroke-miterlimit="10" stroke-width="2" fill="none">			<path d="m37 48.1h-28.4c-1.8 0-3.3-1.5-3.3-3.3v-0.1h35.1v0.1c-0.1 1.8-1.6 3.3-3.4 3.3z"/>				<line x1="21" y2="45" x2="25" y1="45"/>			<path d="m37.8 44.7h-30v-17c0-0.8 0.7-1.5 1.5-1.5h27c0.8 0 1.5 0.7 1.5 1.5v17z"/>				<rect height="15.7" width="24.9" y="29" x="10.4"/>		</g></svg><svg xmlns:xlink="http://www.w3.org/1999/xlink" id="dinner" xml:space="preserve" height="64" viewBox="0 0 64 64" width="64" version="1.1" y="448" x="0px" enable-background="new 0 0 64 64"><g stroke-linejoin="round" stroke="#333" stroke-linecap="round" stroke-miterlimit="10" stroke-width="2" fill="none">	<path d="m12.7 46.7c5.4 5.5 12.1 6.7 19.3 6.7s13.9-1.1 19.3-6.6l-19.3-36.2-19.3 36.1z"/>	<path d="m32 48.4c-6.3 0-12.2-1.6-17.2-5.7l-2.2 4c5.4 5.5 12.1 6.7 19.3 6.7s13.9-1.1 19.3-6.6l-2.2-4c-4.8 3.9-10.7 5.6-17 5.6z"/>		<circle r="3.3" cx="26.1" cy="38.7"/>		<circle r="3.3" cx="32.1" cy="27.7"/>		<circle r="3.3" cx="38.1" cy="38.8"/>		<line x1="32" y2="42" x2="32" y1="43"/>		<line x1="44" y2="41" x2="44" y1="42"/>		<line x1="20" y2="41" x2="20" y1="42"/>		<line x1="26" y2="31" x2="26" y1="32"/>		<line x1="32" y2="35" x2="32" y1="36"/>		<line x1="38" y2="31" x2="38" y1="32"/>		<line x1="32" y2="19" x2="32" y1="20"/></g></svg><svg xmlns:xlink="http://www.w3.org/1999/xlink" id="hammock" xml:space="preserve" height="64" viewBox="0 0 64 64" width="64" version="1.1" y="512" x="0px" enable-background="new 0 0 64 64"><g stroke-linejoin="round" stroke="#333" stroke-linecap="round" stroke-miterlimit="10" stroke-width="2" fill="none">		<rect height="28.3" width="36.1" y="17.9" x="13.9"/>		<rect height="28.3" width="4.6" y="17.9" x="13.9"/>		<rect height="28.3" width="4.6" y="17.9" x="45.4"/>			<line x1="10.4" y2="17.9" x2="13.9" y1="17.9"/>			<line x1="10.4" y2="20.4" x2="13.9" y1="20.4"/>			<line x1="10.4" y2="23" x2="13.9" y1="23"/>			<line x1="10.4" y2="25.6" x2="13.9" y1="25.6"/>			<line x1="10.4" y2="28.1" x2="13.9" y1="28.1"/>			<line x1="10.4" y2="30.7" x2="13.9" y1="30.7"/>			<line x1="10.4" y2="33.3" x2="13.9" y1="33.3"/>			<line x1="10.4" y2="35.9" x2="13.9" y1="35.9"/>			<line x1="10.4" y2="38.4" x2="13.9" y1="38.4"/>			<line x1="10.4" y2="41" x2="13.9" y1="41"/>			<line x1="10.4" y2="43.6" x2="13.9" y1="43.6"/>			<line x1="10.4" y2="46.1" x2="13.9" y1="46.1"/>			<line x1="53.6" y2="17.9" x2="50.1" y1="17.9"/>			<line x1="53.6" y2="20.4" x2="50.1" y1="20.4"/>			<line x1="53.6" y2="23" x2="50.1" y1="23"/>			<line x1="53.6" y2="25.6" x2="50.1" y1="25.6"/>			<line x1="53.6" y2="28.1" x2="50.1" y1="28.1"/>			<line x1="53.6" y2="30.7" x2="50.1" y1="30.7"/>			<line x1="53.6" y2="33.3" x2="50.1" y1="33.3"/>			<line x1="53.6" y2="35.9" x2="50.1" y1="35.9"/>			<line x1="53.6" y2="38.4" x2="50.1" y1="38.4"/>			<line x1="53.6" y2="41" x2="50.1" y1="41"/>			<line x1="53.6" y2="43.6" x2="50.1" y1="43.6"/>			<line x1="53.6" y2="46.1" x2="50.1" y1="46.1"/>		<polygon points="32 45.7 20 32 32 18.3 44 32"/>		<polygon points="32 45.7 20 32 32 18.3 44 32"/>		<line x1="18.5" y2="17.9" x2="26" y1="26.5"/>		<line x1="45.4" y2="17.9" x2="37.9" y1="26.5"/>		<line x1="18.5" y2="46.1" x2="26" y1="37.5"/>		<line x1="45.4" y2="46.1" x2="37.9" y1="37.5"/></g></svg><svg xmlns:xlink="http://www.w3.org/1999/xlink" id="heating" xml:space="preserve" height="64" viewBox="0 0 64 64" width="64" version="1.1" y="576" x="0px" enable-background="new 0 0 64 64"><g stroke-linejoin="round" stroke="#333" stroke-linecap="round" stroke-miterlimit="10" stroke-width="2" fill="none">			<circle r="2.1" cx="31.4" cy="30.4"/>			<circle r="14.8" cx="31.4" cy="30.4"/>		<path d="m40 27c-1.3 0-4.8 0.7-6.9 1.8 1-2.1 1.8-5.6 1.8-6.9 0-1.9-1.5-3.4-3.4-3.4s-3.4 1.5-3.4 3.4c0 1.3 0.7 4.8 1.8 6.9-2.1-1-5.6-1.8-6.9-1.8-1.9 0-3.4 1.5-3.4 3.4s1.5 3.4 3.4 3.4c1.3 0 4.8-0.7 6.9-1.8-1 2.1-1.8 5.6-1.8 6.9 0 1.9 1.5 3.4 3.4 3.4s3.4-1.5 3.4-3.4c0-1.3-0.7-4.8-1.8-6.9 2.1 1 5.6 1.8 6.9 1.8 1.9 0 3.4-1.5 3.4-3.4s-1.5-3.4-3.4-3.4z"/>	<path d="m52 50c0 0.5-0.4 1-1 1h-39c-0.5 0-1-0.4-1-1v-39c0-0.5 0.4-1 1-1h39c0.5 0 1 0.4 1 1v39z"/>		<circle r="2.2" cx="46.3" cy="45.5"/>		<rect height="3" width="6" y="51" x="13"/>		<rect height="3" width="6" y="51" x="44"/></g></svg><svg xmlns:xlink="http://www.w3.org/1999/xlink" id="kitchen" xml:space="preserve" height="64" viewBox="0 0 64 64" width="64" version="1.1" y="640" x="0px" enable-background="new 0 0 64 64"><g stroke-linejoin="round" stroke="#333" stroke-linecap="round" stroke-miterlimit="10" stroke-width="2" fill="none">		<circle r="15.3" cx="31.9" cy="32.4"/>		<circle r="8" cx="31.9" cy="32.4"/>			<line x1="12.7" y2="48.7" x2="12.7" y1="25.7"/>			<ellipse cx="12.5" rx="3.1" cy="20.7" ry="5.4"/>			<line x1="51.7" y2="48.7" x2="51.7" y1="25.7"/>		<path d="m48.4 17.1v4.6c0 3 1.4 4.4 3.1 4.4s3.1-1.4 3.1-4.4v-4.6"/>		<line x1="51.7" y2="16.7" x2="51.7" y1="25.7"/></g></svg><svg xmlns:xlink="http://www.w3.org/1999/xlink" id="laptop" xml:space="preserve" height="64" viewBox="0 0 64 64" width="64" version="1.1" y="704" x="0px" enable-background="new 0 0 64 64">	<g stroke-linejoin="round" stroke="#333" stroke-linecap="round" stroke-miterlimit="10" stroke-width="2" fill="none">		<path d="m51.3 44.6h-38.6c-2.5 0-4.5-2-4.5-4.5v-0.2h47.6v0.2c0 2.5-2 4.5-4.5 4.5z"/>			<line x1="29" y2="41" x2="35" y1="41"/>		<path d="m52.3 39.9h-40.6v-23c0-1.1 0.9-2 2-2h36.7c1.1 0 2 0.9 2 2v23z"/>			<rect height="21.3" width="33.7" y="18.6" x="15.2"/>	</g></svg><svg xmlns:xlink="http://www.w3.org/1999/xlink" id="lounge-room" xml:space="preserve" height="64" viewBox="0 0 64 64" width="64" version="1.1" y="768" x="0px" enable-background="new 0 0 64 64"><g stroke-linejoin="round" stroke="#333" stroke-linecap="round" stroke-miterlimit="10" stroke-width="2" fill="none">		<rect height="9" width="17" y="37" x="24"/>	<path d="m24 50h-6v-10.5c0-3.3-2-4.8-5.6-4.8-2.5 0-4.7-7.3 4-7.3 7.8 0 7.6 11.6 7.6 11.6v11z"/>	<path d="m24 50h-6v-10.5c0-3.3-2-4.8-5.6-4.8-2.5 0-4.7-7.3 4-7.3 7.8 0 7.6 11.6 7.6 11.6v11z"/>	<path d="m41 50h6v-10.5c0-3.3 1.4-4.8 4.9-4.8 2.5 0 5-7.3-3.7-7.3-7.7 0-7.2 11.6-7.2 11.6v11z"/>	<path d="m44.1 14h-24.2c-1.5 0-1.9 1.7-1.9 3.1v10.4c5 0.9 5.3 7.4 5.5 9.4h17.1c0.2-2 1.5-8.6 6.5-9.5v-10.3c-0.1-1.4-1.5-3.1-3-3.1z"/></g><g stroke-linejoin="round" stroke="#333" stroke-linecap="round" stroke-miterlimit="10" stroke-width="2" fill="none">		<rect height="9" width="17" y="37" x="24"/>	<path d="m24 50h-6v-10.5c0-3.3-2-4.8-5.6-4.8-2.5 0-4.7-7.3 4-7.3 7.8 0 7.6 11.6 7.6 11.6v11z"/>	<path d="m24 50h-6v-10.5c0-3.3-2-4.8-5.6-4.8-2.5 0-4.7-7.3 4-7.3 7.8 0 7.6 11.6 7.6 11.6v11z"/>	<path d="m41 50h6v-10.5c0-3.3 1.4-4.8 4.9-4.8 2.5 0 5-7.3-3.7-7.3-7.7 0-7.2 11.6-7.2 11.6v11z"/>	<path d="m44.1 14h-24.2c-1.5 0-1.9 1.7-1.9 3.1v10.4c5 0.9 5.3 7.4 5.5 9.4h17.1c0.2-2 1.5-8.6 6.5-9.5v-10.3c-0.1-1.4-1.5-3.1-3-3.1z"/></g></svg><svg xmlns:xlink="http://www.w3.org/1999/xlink" id="lunch" xml:space="preserve" height="64" viewBox="0 0 64 64" width="64" version="1.1" y="832" x="0px" enable-background="new 0 0 64 64"><g stroke-linejoin="round" stroke="#333" stroke-linecap="round" stroke-miterlimit="10" stroke-width="2" fill="none">		<circle r="22.8" cx="32" cy="32"/>			<circle r="5.5" cx="26" cy="34"/>		<path d="m36.9 34c0 7.8-3.1 12.6-10.9 12.6s-13-10.2-13-18 5.2-7.3 13-7.3c7.8-0.1 10.9 4.9 10.9 12.7z"/>	<path d="m31.7 51.2c-1.3 0-2.5-0.9-2.7-2.3-0.3-1.5 0.7-2.9 2.2-3.2 11.9-2.2 10.8-12.9 10.7-13.4-0.2-1.5 0.9-2.9 2.4-3 1.5-0.2 2.9 0.9 3 2.4 0.7 5.6-1.6 17-15.2 19.4-0.1 0.1-0.3 0.1-0.4 0.1z"/>		<path d="m45 29.4l-6.3-14.9c-0.3-0.6-1-0.9-1.6-0.5l-11.7 7.2"/>			<line x1="36.8" y2="33.5" x2="41.9" y1="31.8"/>		<path d="m36.2 14.3c-1.6-1.5-4.1-1.4-5.6 0.2-1.6-1.5-4.1-1.4-5.6 0.2-0.9 0.9-1.2 2.2-1 3.4-1 0.1-1.9 0.5-2.6 1.3-0.5 0.6-0.9 1.2-1 1.9"/>		<path d="m40.3 15.6c2.2-0.2 4.2 1.3 4.4 3.5 2.2-0.2 4.2 1.3 4.4 3.5 0.1 1.3-0.4 2.5-1.2 3.3 0.7 0.6 1.3 1.5 1.4 2.6 0.1 1.3-0.4 2.6-1.3 3.4"/></g></svg><svg xmlns:xlink="http://www.w3.org/1999/xlink" id="pool" xml:space="preserve" height="64" viewBox="0 0 64 64" width="64" version="1.1" y="896" x="0px" enable-background="new 0 0 64 64"><g stroke-linejoin="round" stroke="#333" stroke-linecap="round" stroke-miterlimit="10" stroke-width="2" fill="none">	<path d="m25 42v-25.9c0-2.5 1.9-5.1 4.4-5.1h0.1c2.5 0 4.5 2.7 4.5 5.1v8.9"/>	<path d="m51 25v-8.9c0-2.5-2-5.1-4.5-5.1h-0.1c-2.5 0-4.4 2.7-4.4 5.1v25.9"/>	<path d="m24 25.7"/>		<line x1="9" y2="25" x2="55" y1="25"/>	</g>		<path stroke-linejoin="round" d="m9 42.7c3.8 0 3.8 4 7.7 4 3.8 0 3.8-4 7.7-4 3.8 0 3.8 4 7.7 4 3.8 0 3.8-4 7.7-4 3.8 0 3.8 4 7.7 4s3.8-4 7.7-4" stroke="#333" stroke-linecap="round" stroke-miterlimit="10" stroke-width="2" fill="none"/>		<path stroke-linejoin="round" d="m9 50.7c3.8 0 3.8 4 7.7 4 3.8 0 3.8-4 7.7-4 3.8 0 3.8 4 7.7 4 3.8 0 3.8-4 7.7-4 3.8 0 3.8 4 7.7 4s3.8-4 7.7-4" stroke="#333" stroke-linecap="round" stroke-miterlimit="10" stroke-width="2" fill="none"/>		<line stroke-linejoin="round" x1="25" y2="31" x2="42" stroke="#333" stroke-linecap="round" stroke-miterlimit="10" y1="31" stroke-width="2" fill="none"/>		<line stroke-linejoin="round" x1="25" y2="37" x2="42" stroke="#333" stroke-linecap="round" stroke-miterlimit="10" y1="37" stroke-width="2" fill="none"/></svg><svg xmlns:xlink="http://www.w3.org/1999/xlink" id="snack" xml:space="preserve" height="64" viewBox="0 0 64 64" width="64" version="1.1" y="960" x="0px" enable-background="new 0 0 64 64">	<path stroke-linejoin="round" d="m48.9 21.6c0-1.4-1.1-2.5-2.4-2.6 1.4-0.1 2.4-1.6 2.4-3s-1.2-3-2.6-3h-0.3v-0.3c0-1.4-1.8-2.6-3.2-2.6s-2.9 1.2-2.9 2.6c0-1.4-1.3-2.6-2.7-2.6s-2.6 1.2-2.6 2.6c0-1.4-1.2-2.6-2.6-2.6s-2.6 1.2-2.6 2.6c0-1.4-1.2-2.6-2.6-2.6s-2.6 1.2-2.6 2.6c0-1.4-1.3-2.6-2.7-2.6s-2.7 1.2-2.7 2.6v0.3h-1.3c-1.4 0-2.6 1.6-2.6 3s1.1 2.7 2.4 2.8c-1.4 0.1-2.4 1.3-2.4 2.7s1.1 2.6 2.4 2.6c-1.4 0.1-2.4 1.2-2.4 2.6s1.1 2.5 2.4 2.6c-1.4 0.1-2.4 1.2-2.4 2.6s1.1 2.5 2.4 2.6c-1.4 0.1-2.4 1.2-2.4 2.6s1.1 2.5 2.4 2.6c-1.4 0.1-2.4 1.2-2.4 2.6s1.1 2.5 2.4 2.6c-1.4 0.1-2.4 1.6-2.4 3s1.2 3 2.6 3h1.5v0.3c0 1.4 1.3 2.6 2.7 2.6s2.6-1.2 2.6-2.6c0 1.4 1.2 2.6 2.6 2.6s2.6-1.2 2.6-2.6c0 1.4 1.2 2.6 2.6 2.6s2.6-1.2 2.6-2.6c0 1.4 1.2 2.6 2.6 2.6s2.6-1.2 2.6-2.6c0 1.4 1.8 2.6 3.2 2.6s3.2-1.2 3.2-2.6v-0.2h0.3c1.4 0 2.6-1.6 2.6-3s-1.1-2.7-2.4-2.8c1.4-0.1 2.4-1.3 2.4-2.7s-1.1-2.6-2.4-2.6c1.4-0.1 2.4-1.2 2.4-2.6s-1.1-2.5-2.4-2.6c1.4-0.1 2.4-1.2 2.4-2.6s-1.1-2.5-2.4-2.6c1.4-0.1 2.4-1.2 2.4-2.6s-1.1-2.5-2.4-2.6c1.1-0.2 2.1-1.3 2.1-2.7z" stroke="#333" stroke-linecap="round" stroke-miterlimit="10" stroke-width="2" fill="none"/>	<g fill="#333">			<circle cy="24.3" cx="26.4" r="1.5"/>			<circle cy="24.3" cx="37.6" r="1.5"/>			<circle cy="32" cx="26.4" r="1.5"/>			<circle cy="32" cx="37.6" r="1.5"/>			<circle cy="39.8" cx="26.4" r="1.5"/>			<circle cy="39.8" cx="37.6" r="1.5"/>	</g></svg><svg xmlns:xlink="http://www.w3.org/1999/xlink" id="tea" xml:space="preserve" height="64" viewBox="0 0 64 64" width="64" version="1.1" y="1024" x="0px" enable-background="new 0 0 64 64"><g stroke-linejoin="round" stroke="#333" stroke-linecap="round" stroke-miterlimit="10" stroke-width="2" fill="none">		<polygon points="31.5 46.5 48.8 46.5 53.8 42.5 31.5 42.5 10.2 42.5 14.3 46.5"/>	<path d="m29.3 17.5h15.5c0 12-7.9 25-7.9 25h-7.6-7.6s-7.9-13-7.9-25h15.5z"/>	<path d="m44.8 23.3s3.7-4.1 6.5-2.5c3.5 2 1.5 7-7.4 11.8-2.1 1.1-2.3 4.3-0.2 5.4 0.7 0.3 1.6 0.5 2.7 0.1"/>			<line x1="26.4" y2="27.5" x2="26.4" y1="18.5"/>			<polyline points="26.4 36.5 23.4 36.5 23.4 30.9 26.4 27.9"/>			<polyline points="26.4 36.5 29.4 36.5 29.4 30.9 26.4 27.9"/></g></svg><svg xmlns:xlink="http://www.w3.org/1999/xlink" id="tv" xml:space="preserve" height="64" viewBox="0 0 64 64" width="64" version="1.1" y="1088" x="0px" enable-background="new 0 0 64 64"><g stroke-linejoin="round" stroke="#333" stroke-linecap="round" stroke-miterlimit="10" stroke-width="2" fill="none">		<rect height="21.3" width="33.7" y="22.5" x="15"/>	<path d="m54 46c0 1.7-1.3 3-3 3h-38c-1.7 0-3-1.3-3-3v-26c0-1.7 1.3-3 3-3h38c1.7 0 3 1.3 3 3v26z"/>	<path d="m37.4 17c-0.6-2-3-4.9-5.9-4.9s-5.4 2.9-5.9 4.9h11.8z"/>	<path d="m19.4 49.2s-4.3 5.8-5.4 5.8 1-5.8 1-5.8"/>	<path d="m43.9 49.2s4.3 5.8 5.4 5.8-1-5.8-1-5.8"/>		<line x1="24.2" y2="13.3" x2="28.3" y1="9"/>		<line x1="38.8" y2="13.3" x2="34.7" y1="9"/></g></svg><svg xmlns:xlink="http://www.w3.org/1999/xlink" id="video_projector" xml:space="preserve" height="64" viewBox="0 0 64 64" width="64" version="1.1" y="1152" x="0px" enable-background="new 0 0 64 64"><g stroke-linejoin="round" stroke="#000" stroke-linecap="round" stroke-miterlimit="10" stroke-width="2" fill="none">	<path d="m27.3 22.4h26.7c1.1 0 2 0.9 2 2v12c0 1.1-0.9 2-2 2h-26.7"/>	<path d="m17.7 38.4h-7.7c-1.1 0-2-0.9-2-2v-12c0-1.1 0.9-2 2-2h8.4"/>		<rect height="4.3" width="7.7" y="38.4" x="10"/>		<rect height="4.3" width="7.7" y="38.4" x="46.7"/>		<circle r="9.2" cx="22.8" cy="30.4"/>			<line x1="37" y2="27" x2="50" y1="27"/>			<line x1="37" y2="32" x2="50" y1="32"/></g></svg><svg xmlns:xlink="http://www.w3.org/1999/xlink" id="washer" xml:space="preserve" height="64" viewBox="0 0 64 64" width="64" version="1.1" y="1216" x="0px" enable-background="new 0 0 64 64"><g stroke-linejoin="round" stroke="#333" stroke-linecap="round" stroke-miterlimit="10" stroke-width="2" fill="none">	<path d="m51 53.5c0 0.6-0.4 1-1 1h-36c-0.6 0-1-0.4-1-1v-43c0-0.6 0.4-1 1-1h36c0.6 0 1 0.4 1 1v43z"/>		<circle r="12.7" cx="32" cy="37.6"/>		<circle r="9" cx="32" cy="37.6"/>		<line x1="13" y2="20.5" x2="51" y1="20.5"/>		<circle r="2" cx="44.5" cy="14.5"/>		<circle r="2" cx="37" cy="14.5"/>			<line x1="18" y2="13.5" x2="27" y1="13.5"/>			<line x1="18" y2="16.5" x2="27" y1="16.5"/>	<path d="m41 38c0 0.8-0.7 1.5-1.5 1.5h-3c-0.8 0-1.5-0.7-1.5-1.5s0.7-1.5 1.5-1.5h3c0.8 0 1.5 0.7 1.5 1.5z"/></g></svg><svg xmlns:xlink="http://www.w3.org/1999/xlink" id="wifi" xml:space="preserve" height="64" viewBox="0 0 64 64" width="64" version="1.1" y="1280" x="0px" enable-background="new 0 0 64 64"><g stroke-linejoin="round" stroke="#333" stroke-linecap="round" stroke-miterlimit="10" stroke-width="2" fill="none">		<circle r="3.8" cx="32" cy="45.6"/>	<path d="m20.6 37.5c2.3-3.5 6.6-5.8 11.5-5.8 4.8 0 9 2.3 11.4 5.7"/>	<path d="m16.2 31.1c3.2-4.8 9.1-8 15.8-8 6.6 0 12.5 3.1 15.7 7.9"/>	<path d="m12.5 24.5c4-5.9 11.3-9.9 19.6-9.9 8.2 0 15.4 3.9 19.5 9.7"/></g></svg></svg>
