<svg id="Layer_1" data-name="Layer 1" xmlns="http://www.w3.org/2000/svg" viewBox="0 0 49.6 45.7"><defs><style>.cls-1{fill:none;stroke:#008a6f;stroke-linecap:round;stroke-linejoin:round;stroke-width:2px;}</style></defs><title>receive_pass</title><path class="cls-1" d="M51.3,53.7H12.7a4.5,4.5,0,0,1-4.5-4.5V49H55.8v.2A4.5,4.5,0,0,1,51.3,53.7Z" transform="translate(-7.2 -9)"/><line class="cls-1" x1="21.8" y1="41" x2="27.8" y2="41"/><path class="cls-1" d="M42.1,24h8.2a2,2,0,0,1,2,2V49H11.7V26a2,2,0,0,1,2-2h8.1" transform="translate(-7.2 -9)"/><polyline class="cls-1" points="34.9 18.7 41.7 18.7 41.7 40 8 40 8 18.7 14.5 18.7"/><line class="cls-1" x1="19.8" y1="1" x2="19.8" y2="7"/><line class="cls-1" x1="24.8" y1="3" x2="24.8" y2="7"/><line class="cls-1" x1="29.8" y1="1" x2="29.8" y2="7"/><path class="cls-1" d="M41.7,33.6H22.2a.5.5,0,0,1-.5-.5V20.5a.5.5,0,0,1,.5-.5H41.7a.5.5,0,0,1,.5.5V33.1C42.1,33.4,41.9,33.6,41.7,33.6Z" transform="translate(-7.2 -9)"/><path class="cls-1" d="M42.1,20.5l-9.9,8a.6.6,0,0,1-.6,0l-9.9-8" transform="translate(-7.2 -9)"/><line class="cls-1" x1="34.6" y1="24.6" x2="27.1" y2="17.8"/><line class="cls-1" x1="15" y1="24.6" x2="22.2" y2="18.1"/></svg>