<?xml version="1.0" encoding="utf-8"?><!DOCTYPE svg PUBLIC "-//W3C//DTD SVG 1.1//EN" "http://www.w3.org/Graphics/SVG/1.1/DTD/svg11.dtd"><svg width="228" height="190" viewBox="0 0 228 190" xmlns="http://www.w3.org/2000/svg" xmlns:xlink="http://www.w3.org/1999/xlink"><svg width="38" height="38" viewBox="-6 -6 76 76" id="air-condition" x="38"><g fill="none" stroke="#333" stroke-width="2" stroke-linecap="round" stroke-linejoin="round" stroke-miterlimit="10"><path d="M45.9 18.4l-1.8 6.5M50.7 26.8l-6.6-1.9M13.1 37.1l6.5 1.8M17.8 45.4l1.8-6.5M12.1 43.4l39.8-22.6"/><g><path d="M18.1 18.4l1.8 6.5M13.3 26.8l6.6-1.9M50.9 37.1l-6.5 1.8M46.2 45.4l-1.8-6.5M51.9 43.4L12.1 20.8"/></g><g><path d="M36.7 13.1L32 17.9M27.1 13.2l4.9 4.7M37 50.9l-4.8-4.8M27.4 50.9l4.8-4.8M32 54.9l-.3-45.8"/></g></g></svg><svg width="38" height="38" viewBox="-6 -6 76 76" id="bathroom" x="76" y="114"><g fill="none" stroke="#333" stroke-width="2" stroke-linecap="round" stroke-linejoin="round" stroke-miterlimit="10"><path d="M53 35.8H11c-1.4 0-2.5-1.1-2.5-2.5s1.1-2.5 2.5-2.5h42c1.4 0 2.5 1.1 2.5 2.5s-1.1 2.5-2.5 2.5zM53.9 35.8H10.1l1 7c0 4.1 3.3 7.4 7.4 7.4h27c4.1 0 7.4-3.3 7.4-7.4l1-7z"/><path d="M12.8 47.6l-1.3 3.3c-.5 1.1.1 2.5 1.3 2.9 1.1.5 2.5-.1 2.9-1.3l1-2.6c-1.5-.3-2.9-1.1-3.9-2.3zM51.2 47.6l1.3 3.3c.5 1.1-.1 2.5-1.3 2.9-1.1.5-2.5-.1-2.9-1.3l-1-2.6c1.5-.3 2.9-1.1 3.9-2.3zM11.5 30V16c0-3.3 2.7-6 6-6 2.1 0 3.9 1 5 2.6"/><path d="M29 16.9H17.5l.2-.4c1.1-2 3.2-3.3 5.5-3.3s4.4 1.3 5.5 3.3l.3.4zM18 21v1M24 21v1M21 25v1M27 25v1M30 21v1"/></g></svg><svg width="38" height="38" viewBox="-6 -6 76 76" id="big-bed" y="38"><g fill="none" stroke="#333" stroke-width="2" stroke-linecap="round" stroke-linejoin="round" stroke-miterlimit="10"><path d="M8.3 38.3h47.3v8.4H8.3zM12 47v4M52 47v4M27.7 29.8h-7.8c-.6 0-1-.4-1-1v-4c0-.6.4-1 1-1h7.8c.6 0 1 .4 1 1v4c0 .5-.5 1-1 1zM43.7 29.8h-7.8c-.6 0-1-.4-1-1v-4c0-.6.4-1 1-1h7.8c.6 0 1 .4 1 1v4c0 .5-.5 1-1 1z"/><path d="M19 27h-5.2L8.3 38h47.4l-5.5-11H45M35 27h-6M45 27h5V15.1c0-1.1-.7-2.1-1.8-2.1H15.8c-1.1 0-1.8 1-1.8 2.1V27h5M29 27h6"/></g></svg><svg width="38" height="38" viewBox="-6 -6 76 76" id="book" x="38" y="38"><g fill="none" stroke="#333" stroke-width="2" stroke-linecap="round" stroke-linejoin="round" stroke-miterlimit="10"><path d="M52.3 18.8h2.4c.6 0 1 .4 1 1v28.5c0 .6-.4 1-1 1H9.3c-.6 0-1-.4-1-1V19.8c0-.6.4-1 1-1h2.1"/><path d="M31.4 48.2c-8.3-8.1-20.4-1-20.4-1v-28s12.1-8 20.4 0v29zM31.9 19.2l-.1 29M41.7 44.3c5.7.1 10.3 2.9 10.3 2.9v-28s-1.5-1-3.8-2"/><path d="M31.8 19.3L48 13.2v28.2l-16.8 6.8M15.7 24.2s7.5-3.5 12.2-.8M15.7 29.2s7.5-3.5 12.2-.8M15.7 34.2s7.5-3.5 12.2-.8M15.7 39.2s7.5-3.5 12.2-.8M35.8 23.3l8-2.8"/></g></svg><svg width="38" height="38" viewBox="-6 -6 76 76" id="breakfast" x="76"><g fill="none" stroke="#333" stroke-width="2" stroke-linecap="round" stroke-linejoin="round" stroke-miterlimit="10"><path d="M50.2 47.5c0 1.5-1.2 2.5-2.7 2.5H16.6c-1.5 0-2.7-1-2.7-2.5l.9-16.4c0-1.5 1.2-3.1 2.7-3.1h29.1c1.5 0 2.7 1.5 2.7 3.1l.9 16.4zM15 45h35M16 50h6v3h-6zM42 50h6v3h-6zM37 28v-7.7s4.2-1.5 3-5.3c-1.2-3.6-5.9-4.1-11-4.1h.2c-5.1 0-9.9.4-11 4.1-1.2 3.8 2.8 5.3 2.8 5.3V28"/><path d="M47 15.2c-1.2-3.6-5.8-3.9-10.8-3.9-1.2 0-2.4 0-3.5.1 3.5.2 6.5 1.1 7.4 3.8 1.2 3.7-3 5.1-3 5.1V28h7v-7.7c-.1 0 4.1-1.3 2.9-5.1zM36.1 11.4h.2-.2z"/></g></svg><svg width="38" height="38" viewBox="-6 -6 76 76" id="classroom" x="76" y="38"><g fill="none" stroke="#333" stroke-width="2" stroke-linecap="round" stroke-linejoin="round" stroke-miterlimit="10"><path d="M9.9 40.4h44.2c.6 0 1 .4 1 1v2.7c0 .6-.4 1-1 1H9.9c-.6 0-1-.4-1-1v-2.7c0-.6.5-1 1-1zM35.1 8.9h-6.2c-.6 0-1 .4-1 1v3.7h8.2V9.9c0-.5-.5-1-1-1z"/><path d="M51.6 13.6H12.4c-.6 0-1 .4-1 1v25.8h41.2V14.6c0-.5-.5-1-1-1zM32 55V45M21.7 55.1l5.3-10M43.2 55.1l-5.4-10"/></g></svg><svg width="38" height="38" viewBox="-6 -6 76 76" id="close-to" y="76"><g fill="none" stroke="#333" stroke-width="2" stroke-linecap="round" stroke-linejoin="round" stroke-miterlimit="10"><path d="M24.6 33.1c5.2.1 9.2 1.1 9.2 2.1 0 1.2-4.8 2.2-10.7 2.2s-10.7-1-10.7-2.2c0-1.1 3.7-1.9 8.7-2.1"/><circle cx="23.1" cy="13.6" r="3.5"/><path d="M23.1 35.2c.8 0 1.2-.7 1.2-.7l.5-5.7s.8-.3 1.8-.8c1-.6 1.2-7.7 1.2-9.3 0-1.6-4.8-1.6-4.8-1.6s-4.8 0-4.8 1.6.2 8.7 1.2 9.3c1 .6 1.8.8 1.8.8l.5 5.7c.1-.1.6.7 1.4.7z"/><g><path d="M17 41h19V27h-8M52 41H42V27h10M17 46h19v8M42 54v-8h10M29 22h23"/></g></g></svg><svg width="38" height="38" viewBox="-6 -6 76 76" id="coffee" x="38" y="76"><g fill="none" stroke="#333" stroke-width="2" stroke-linecap="round" stroke-linejoin="round" stroke-miterlimit="10"><path d="M48.4 29.3s6.3-.8 6.3 6.3-9.2 7.5-9.2 7.5M37 9.1c1.1 1.3 1.2 3.3.2 4.7-1 1.4-.9 3.2.1 4.6M29 9.1c1.1 1.3 1.2 3.3.2 4.7-1 1.4-.9 3.2.1 4.6M21 9.1c1.1 1.3 1.2 3.3.2 4.7-1 1.4-.9 3.2.1 4.6M39.6 54.9H21.3c-4.4 0-8.7-1.5-11.9-4.1h42.2c-3.3 2.6-7.5 4.1-12 4.1zM38.3 50.2c3.8-3 6.5-6.1 7.3-10.7l2.1-13.3H12.6l2.1 13.3c.7 4.5 3.5 7.7 7.3 10.7"/></g></svg><svg width="38" height="38" viewBox="-6 -6 76 76" id="computer-room" x="76" y="76"><g fill="none" stroke="#333" stroke-width="2" stroke-linecap="round" stroke-linejoin="round" stroke-miterlimit="10"><path d="M16.6 26.2v-8.5c0-1 .8-1.9 1.9-1.9h38.4c1 0 1.9.8 1.9 1.9v22.7c0 1-.8 1.9-1.9 1.9H38.5M44.3 42.4v5.7h-9.9M29 48h19M39 37h20"/></g><g fill="none" stroke="#333" stroke-width="2" stroke-linecap="round" stroke-linejoin="round" stroke-miterlimit="10"><path d="M37 48.1H8.6c-1.8 0-3.3-1.5-3.3-3.3v-.1h35.1v.1c-.1 1.8-1.6 3.3-3.4 3.3zM21 45h4M37.8 44.7h-30v-17c0-.8.7-1.5 1.5-1.5h27c.8 0 1.5.7 1.5 1.5v17z"/><path d="M10.4 29h24.9v15.7H10.4z"/></g></svg><svg width="38" height="38" viewBox="-6 -6 76 76" id="dinner" x="114"><g fill="none" stroke="#333" stroke-width="2" stroke-linecap="round" stroke-linejoin="round" stroke-miterlimit="10"><path d="M12.7 46.7c5.4 5.5 12.1 6.7 19.3 6.7s13.9-1.1 19.3-6.7L32 10.6 12.7 46.7z"/><path d="M32 48.4c-6.3 0-12.2-1.6-17.2-5.7l-2.2 4c5.4 5.5 12.1 6.7 19.3 6.7s13.9-1.1 19.3-6.7l-2.2-4c-4.8 4-10.7 5.7-17 5.7z"/><circle cx="26.1" cy="38.7" r="3.3"/><circle cx="32.1" cy="27.7" r="3.3"/><circle cx="38.1" cy="38.7" r="3.3"/><path d="M32 43v-1M44 42v-1M20 42v-1M26 32v-1M32 36v-1M38 32v-1M32 20v-1"/></g></svg><svg width="38" height="38" viewBox="-6 -6 76 76" id="hammock" x="114" y="38"><g fill="none" stroke="#333" stroke-width="2" stroke-linecap="round" stroke-linejoin="round" stroke-miterlimit="10"><path d="M13.9 17.9H50v28.3H13.9z"/><path d="M13.9 17.9h4.6v28.3h-4.6zM45.4 17.9H50v28.3h-4.6zM10.4 17.9h3.5M10.4 20.4h3.5M10.4 23h3.5M10.4 25.6h3.5M10.4 28.1h3.5M10.4 30.7h3.5M10.4 33.3h3.5M10.4 35.9h3.5M10.4 38.4h3.5M10.4 41h3.5M10.4 43.6h3.5M10.4 46.1h3.5"/><g><path d="M53.6 17.9h-3.5M53.6 20.4h-3.5M53.6 23h-3.5M53.6 25.6h-3.5M53.6 28.1h-3.5M53.6 30.7h-3.5M53.6 33.3h-3.5M53.6 35.9h-3.5M53.6 38.4h-3.5M53.6 41h-3.5M53.6 43.6h-3.5M53.6 46.1h-3.5"/></g><path d="M32 45.7L20 32l12-13.7L44 32z"/><path d="M32 45.7L20 32l12-13.7L44 32zM18.5 26.5l7.5-8.6M45.4 26.5l-7.5-8.6M18.5 37.5l7.5 8.6M45.4 37.5l-7.5 8.6"/></g></svg><svg width="38" height="38" viewBox="-6 -6 76 76" id="heating" x="114" y="76"><g fill="none" stroke="#333" stroke-width="2" stroke-linecap="round" stroke-linejoin="round" stroke-miterlimit="10"><circle cx="31.4" cy="30.4" r="2.1"/><circle cx="31.4" cy="30.4" r="14.8"/><path d="M40 27c-1.3 0-4.8.7-6.9 1.8 1-2.1 1.8-5.6 1.8-6.9 0-1.9-1.5-3.4-3.4-3.4s-3.4 1.5-3.4 3.4c0 1.3.7 4.8 1.8 6.9-2.1-1-5.6-1.8-6.9-1.8-1.9 0-3.4 1.5-3.4 3.4s1.5 3.4 3.4 3.4c1.3 0 4.8-.7 6.9-1.8-1 2.1-1.8 5.6-1.8 6.9 0 1.9 1.5 3.4 3.4 3.4s3.4-1.5 3.4-3.4c0-1.3-.7-4.8-1.8-6.9 2.1 1 5.6 1.8 6.9 1.8 1.9 0 3.4-1.5 3.4-3.4S41.9 27 40 27z"/><path d="M52 50c0 .5-.4 1-1 1H12c-.5 0-1-.4-1-1V11c0-.5.4-1 1-1h39c.5 0 1 .4 1 1v39z"/><circle cx="46.3" cy="45.5" r="2.2"/><path d="M13 51h6v3h-6zM44 51h6v3h-6z"/></g></svg><svg width="38" height="38" viewBox="-6 -6 76 76" id="kitchen" y="114"><g fill="none" stroke="#333" stroke-width="2" stroke-linecap="round" stroke-linejoin="round" stroke-miterlimit="10"><circle cx="31.9" cy="32.4" r="15.3"/><circle cx="31.9" cy="32.4" r="8"/><path d="M12.7 25.7v23"/><ellipse cx="12.5" cy="20.7" rx="3.1" ry="5.4"/><path d="M51.7 25.7v23M48.4 17.1v4.6c0 3 1.4 4.4 3.1 4.4 1.7 0 3.1-1.4 3.1-4.4v-4.6M51.7 25.7v-9"/></g></svg><svg width="38" height="38" viewBox="-6 -6 76 76" id="laptop" x="38" y="114"><g fill="none" stroke="#333" stroke-width="2" stroke-linecap="round" stroke-linejoin="round" stroke-miterlimit="10"><path d="M51.3 44.6H12.7c-2.5 0-4.5-2-4.5-4.5v-.2h47.6v.2c0 2.5-2 4.5-4.5 4.5zM29 41h6M52.3 39.9H11.7v-23c0-1.1.9-2 2-2h36.7c1.1 0 2 .9 2 2v23z"/><path d="M15.2 18.6h33.7v21.3H15.2z"/></g></svg><svg width="38" height="38" viewBox="-6 -6 76 76" id="lounger"><g fill="none" stroke="#333" stroke-width="2" stroke-linecap="round" stroke-linejoin="round" stroke-miterlimit="10"><path d="M24 37h17v9H24z"/><path d="M24 50h-6V39.5c0-3.3-2-4.8-5.6-4.8-2.5 0-4.7-7.3 4-7.3C24.2 27.4 24 39 24 39v11z"/><path d="M24 50h-6V39.5c0-3.3-2-4.8-5.6-4.8-2.5 0-4.7-7.3 4-7.3C24.2 27.4 24 39 24 39v11zM41 50h6V39.5c0-3.3 1.4-4.8 4.9-4.8 2.5 0 5-7.3-3.7-7.3C40.5 27.4 41 39 41 39v11z"/><path d="M44.1 14H19.9c-1.5 0-1.9 1.7-1.9 3.1v10.4c5 .9 5.3 7.4 5.5 9.4h17.1c.2-2 1.5-8.6 6.5-9.5V17.1c-.1-1.4-1.5-3.1-3-3.1z"/></g><g fill="none" stroke="#333" stroke-width="2" stroke-linecap="round" stroke-linejoin="round" stroke-miterlimit="10"><path d="M24 37h17v9H24z"/><path d="M24 50h-6V39.5c0-3.3-2-4.8-5.6-4.8-2.5 0-4.7-7.3 4-7.3C24.2 27.4 24 39 24 39v11z"/><path d="M24 50h-6V39.5c0-3.3-2-4.8-5.6-4.8-2.5 0-4.7-7.3 4-7.3C24.2 27.4 24 39 24 39v11zM41 50h6V39.5c0-3.3 1.4-4.8 4.9-4.8 2.5 0 5-7.3-3.7-7.3C40.5 27.4 41 39 41 39v11z"/><path d="M44.1 14H19.9c-1.5 0-1.9 1.7-1.9 3.1v10.4c5 .9 5.3 7.4 5.5 9.4h17.1c.2-2 1.5-8.6 6.5-9.5V17.1c-.1-1.4-1.5-3.1-3-3.1z"/></g></svg><svg width="38" height="38" viewBox="-6 -6 76 76" id="lunch" x="114" y="114"><g fill="none" stroke="#333" stroke-width="2" stroke-linecap="round" stroke-linejoin="round" stroke-miterlimit="10"><circle cx="32" cy="32" r="22.8"/><path d="M32 49.3c9.5 0 2.2-4.8 2.2-14.3s4.5-16.3-1.2-19.8c-8.2-4.9-18.2 7.3-18.2 16.8-.1 9.5 7.6 17.3 17.2 17.3z"/><path d="M46.4 25.8h-.2c.1-.4.2-.9.2-1.4 0-3-2.4-5.4-5.4-5.4-1 0-1.9.3-2.7.7-.7-1-1.8-1.8-3-2.1 1.7 3.8-1.1 9.7-1.1 17.2 0 4.2 1.4 7.5 2.2 9.9.8-.4 1.4-1 1.9-1.7.8.5 1.7.7 2.7.7 3 0 5.4-2.4 5.4-5.4 0-.5-.1-.9-.2-1.4h.2c3.1 0 5.7-2.5 5.7-5.7 0-2.9-2.6-5.4-5.7-5.4zM31.4 46.4c5.3 0 0-4.5 0-12.1s4-13.1-.2-15.8c-6-3.9-13.3 5.8-13.3 13.4 0 7.6 6.5 14.5 13.5 14.5z"/><circle cx="25.8" cy="28" r="2.4"/><path d="M46.4 25.8h-.2c.1-.4.2-.9.2-1.4 0-3-2.4-5.4-5.4-5.4-1 0-1.9.3-2.7.7-.7-1-1.8-1.8-3-2.1 1.7 3.8-1.1 9.7-1.1 17.2 0 4.2 1.4 7.5 2.2 9.9.8-.4 1.4-1 1.9-1.7.8.5 1.7.7 2.7.7 3 0 5.4-2.4 5.4-5.4 0-.5-.1-.9-.2-1.4h.2c3.1 0 5.7-2.5 5.7-5.7 0-2.9-2.6-5.4-5.7-5.4zM34.3 32.5s8.2-1.9 10.9-1.2M39 27.1l-2.1 4.5M39 31.6l3.3 4.2"/></g></svg><svg width="38" height="38" viewBox="-6 -6 76 76" id="movie" x="152"><g fill="none" stroke="#333" stroke-width="2" stroke-linecap="round" stroke-linejoin="round" stroke-miterlimit="10"><path d="M13 15h37v35H13z"/><path d="M13 15h7v7h-7zM43 15h7v7h-7zM13 22h7v7h-7zM43 22h7v7h-7zM13 29h7v7h-7zM43 29h7v7h-7zM13 36h7v7h-7zM43 36h7v7h-7zM13 43h7v7h-7zM43 43h7v7h-7zM27.9 25.5l9.7 6.6c.2.1.2.4 0 .6l-9.7 6.6c-.2.1-.4 0-.4-.3V25.7c-.1-.2.2-.4.4-.2z"/></g><g fill="none" stroke="#333" stroke-width="2" stroke-linecap="round" stroke-linejoin="round" stroke-miterlimit="10"><path d="M13 15h37v35H13z"/><path d="M13 15h7v7h-7zM43 15h7v7h-7zM13 22h7v7h-7zM43 22h7v7h-7zM13 29h7v7h-7zM43 29h7v7h-7zM13 36h7v7h-7zM43 36h7v7h-7zM13 43h7v7h-7zM43 43h7v7h-7zM27.9 25.5l9.7 6.6c.2.1.2.4 0 .6l-9.7 6.6c-.2.1-.4 0-.4-.3V25.7c-.1-.2.2-.4.4-.2z"/></g></svg><svg id="people" viewBox="-6 -6 76 76" width="38" height="38" x="152" y="38"><style>.arst0{fill:none;stroke:#333;stroke-width:2;stroke-linecap:round;stroke-linejoin:round;stroke-miterlimit:10}</style><path class="arst0" d="M27.6 30.5C26.5 29 26 27 26.5 24.8s2-3.9 4-4.5c3.9-1.2 7.5 2 7.5 6.2 0 1.5-.5 2.9-1.2 3.9-.6.9-.5 2.1.4 2.6 3.2 1.8 5.5 5.3 5.9 9.5.1.7-.4 1.3-1.1 1.3H22.3c-.6 0-1.1-.6-1.1-1.3.4-4.2 2.7-7.7 5.9-9.5.9-.4 1.1-1.6.5-2.5z"/><path class="arst0" d="M26.5 43.9H8.6c-.6 0-1-.5-1-1.2.4-3.8 2.4-7 5.3-8.6.8-.4 1-1.6.4-2.4-1-1.4-1.4-3.2-1-5.2.5-2 1.8-3.5 3.6-4.1 3.6-1.1 6.8 1.8 6.8 5.6 0 1.4-.4 2.6-1.1 3.6-.6.8-.4 1.9.4 2.4.7.4 1.4.9 2 1.5"/><g><path class="arst0" d="M37.5 43.9h17.9c.6 0 1-.5 1-1.2-.4-3.8-2.4-7-5.3-8.6-.8-.4-1-1.6-.4-2.4 1-1.4 1.4-3.2 1-5.2-.5-2-1.8-3.5-3.6-4.1-3.6-1.1-6.8 1.8-6.8 5.6 0 1.4.4 2.6 1.1 3.6.6.8.4 1.9-.4 2.4-.7.4-.8.3-1.4.9"/></g></svg><svg width="38" height="38" viewBox="-6 -6 76 76" id="person" x="152" y="76"><path fill="none" stroke="#333" stroke-width="2" stroke-linecap="round" stroke-linejoin="round" stroke-miterlimit="10" d="M31.8 35.7c-4.7 0-8.5-3.8-8.5-8.5v-9.7c0-4.7 3.8-8.5 8.5-8.5s8.5 3.8 8.5 8.5v9.7c0 4.7-3.8 8.5-8.5 8.5z"/><path fill="#333" d="M33.5 9.2v.2c0 4.5 2.8 8.4 6.8 9.9v-1.8c0-4.1-2.9-7.5-6.8-8.3z"/><path fill="#333" d="M27.4 18.9c4.8 0 8.8-3.2 10.1-7.6C36 9.9 34 9 31.7 9c-4.7 0-8.5 3.8-8.5 8.5v.6c1.4.5 2.8.8 4.2.8z"/><path fill="none" stroke="#333" stroke-width="2" stroke-linecap="round" stroke-linejoin="round" stroke-miterlimit="10" d="M47.1 54.9H16.9c-.6 0-1-.4-1-1v-2.2c0-8.9 7.2-16.1 16.1-16.1 8.9 0 16.1 7.2 16.1 16.1v2.2c0 .6-.4 1-1 1z"/><circle fill="#333" cx="27.7" cy="23.1" r="1.1"/><circle fill="#333" cx="36" cy="23.1" r="1.1"/><path fill="none" stroke="#333" stroke-width="2" stroke-linecap="round" stroke-linejoin="round" stroke-miterlimit="10" d="M36 36.8s-.4 3.9-4.2 3.9-4.2-3.9-4.2-3.9"/></svg><svg width="38" height="38" viewBox="-6 -6 76 76" id="pool" x="152" y="114"><path fill="none" stroke="#333" stroke-width="2" stroke-linecap="round" stroke-linejoin="round" stroke-miterlimit="10" d="M25 42V16.1c0-2.5 1.9-5.1 4.4-5.1h.1c2.5 0 4.5 2.7 4.5 5.1V25M51 25v-8.9c0-2.5-2-5.1-4.5-5.1h-.1c-2.5 0-4.4 2.7-4.4 5.1V42M9 25h46M9 42.7c3.8 0 3.8 4 7.7 4 3.8 0 3.8-4 7.7-4 3.8 0 3.8 4 7.7 4 3.8 0 3.8-4 7.7-4 3.8 0 3.8 4 7.7 4s3.8-4 7.7-4M9 50.7c3.8 0 3.8 4 7.7 4 3.8 0 3.8-4 7.7-4 3.8 0 3.8 4 7.7 4 3.8 0 3.8-4 7.7-4 3.8 0 3.8 4 7.7 4s3.8-4 7.7-4M25 31h17M25 37h17"/></svg><svg width="38" height="38" viewBox="-6 -6 76 76" id="snack" y="152"><path fill="none" stroke="#333" stroke-width="2" stroke-linecap="round" stroke-linejoin="round" stroke-miterlimit="10" d="M48.9 21.6c0-1.4-1.1-2.5-2.4-2.6 1.4-.1 2.4-1.6 2.4-3s-1.2-3-2.6-3H46v-.3c0-1.4-1.8-2.6-3.2-2.6-1.4 0-2.9 1.2-2.9 2.6 0-1.4-1.3-2.6-2.7-2.6-1.4 0-2.6 1.2-2.6 2.6 0-1.4-1.2-2.6-2.6-2.6-1.4 0-2.6 1.2-2.6 2.6 0-1.4-1.2-2.6-2.6-2.6-1.4 0-2.6 1.2-2.6 2.6 0-1.4-1.3-2.6-2.7-2.6-1.4 0-2.7 1.2-2.7 2.6v.3h-1.3c-1.4 0-2.6 1.6-2.6 3s1.1 2.7 2.4 2.8c-1.4.1-2.4 1.3-2.4 2.7s1.1 2.6 2.4 2.6c-1.4.1-2.4 1.2-2.4 2.6s1.1 2.5 2.4 2.6c-1.4.1-2.4 1.2-2.4 2.6 0 1.4 1.1 2.5 2.4 2.6-1.4.1-2.4 1.2-2.4 2.6 0 1.4 1.1 2.5 2.4 2.6-1.4.1-2.4 1.2-2.4 2.6 0 1.4 1.1 2.5 2.4 2.6-1.4.1-2.4 1.6-2.4 3s1.2 3 2.6 3H19v.3c0 1.4 1.3 2.6 2.7 2.6 1.4 0 2.6-1.2 2.6-2.6 0 1.4 1.2 2.6 2.6 2.6 1.4 0 2.6-1.2 2.6-2.6 0 1.4 1.2 2.6 2.6 2.6 1.4 0 2.6-1.2 2.6-2.6 0 1.4 1.2 2.6 2.6 2.6 1.4 0 2.6-1.2 2.6-2.6 0 1.4 1.8 2.6 3.2 2.6 1.4 0 3.2-1.2 3.2-2.6V51h.3c1.4 0 2.6-1.6 2.6-3s-1.1-2.7-2.4-2.8c1.4-.1 2.4-1.3 2.4-2.7 0-1.4-1.1-2.6-2.4-2.6 1.4-.1 2.4-1.2 2.4-2.6 0-1.4-1.1-2.5-2.4-2.6 1.4-.1 2.4-1.2 2.4-2.6 0-1.4-1.1-2.5-2.4-2.6 1.4-.1 2.4-1.2 2.4-2.6 0-1.4-1.1-2.5-2.4-2.6 1.1-.2 2.1-1.3 2.1-2.7z"/><g fill="#333"><circle cx="26.4" cy="24.3" r="1.5"/><circle cx="37.6" cy="24.3" r="1.5"/><circle cx="26.4" cy="32" r="1.5"/><circle cx="37.6" cy="32" r="1.5"/><g><circle cx="26.4" cy="39.8" r="1.5"/><circle cx="37.6" cy="39.8" r="1.5"/></g></g></svg><svg width="38" height="38" viewBox="-6 -6 76 76" id="tea" x="38" y="152"><g fill="none" stroke="#333" stroke-width="2" stroke-linecap="round" stroke-linejoin="round" stroke-miterlimit="10"><path d="M31.5 46.5h17.3l5-4H10.2l4.1 4zM29.3 17.5h15.5c0 12-7.9 25-7.9 25H21.7s-7.9-13-7.9-25h15.5z"/><path d="M44.8 23.3s3.7-4.1 6.5-2.5c3.5 2 1.5 7-7.4 11.8-2.1 1.1-2.3 4.3-.2 5.4.7.3 1.6.5 2.7.1M26.4 18.5v9M26.4 36.5h-3v-5.6l3-3M26.4 36.5h3v-5.6l-3-3"/></g></svg><svg width="38" height="38" viewBox="-6 -6 76 76" id="tv" x="76" y="152"><g fill="none" stroke="#333" stroke-width="2" stroke-linecap="round" stroke-linejoin="round" stroke-miterlimit="10"><path d="M15 22.5h33.7v21.3H15z"/><path d="M54 46c0 1.7-1.3 3-3 3H13c-1.7 0-3-1.3-3-3V20c0-1.7 1.3-3 3-3h38c1.7 0 3 1.3 3 3v26zM37.4 17c-.6-2-3-4.9-5.9-4.9-2.9 0-5.4 2.9-5.9 4.9h11.8zM19.4 49.2S15.1 55 14 55s1-5.8 1-5.8M43.9 49.2s4.3 5.8 5.4 5.8-1-5.8-1-5.8M24.2 9l4.1 4.3M38.8 9l-4.1 4.3"/></g></svg><svg width="38" height="38" viewBox="-6 -6 76 76" id="tv-cable" x="114" y="152"><g fill="none" stroke="#000" stroke-width="2" stroke-linecap="round" stroke-linejoin="round" stroke-miterlimit="10"><path d="M48 53.4H16c-4.2 0-7.5-3.4-7.5-7.5 0-4.2 3.4-7.5 7.5-7.5h32c4.2 0 7.5 3.4 7.5 7.5s-3.4 7.5-7.5 7.5z"/><circle cx="18.4" cy="45.9" r="2.2"/><circle cx="27.4" cy="45.9" r="2.2"/><path d="M42 36V20M34.3 13.7c1.4-2 4.6-3.1 7.6-3.1s6.3 1.2 7.7 3.3M37.2 17.1c.9-1.2 2.8-1.9 4.7-1.9 1.9 0 3.9.7 4.7 2"/></g></svg><svg width="38" height="38" viewBox="-6 -6 76 76" id="video-projector" x="152" y="152"><g fill="none" stroke="#000" stroke-width="2" stroke-linecap="round" stroke-linejoin="round" stroke-miterlimit="10"><path d="M27.3 22.4H54c1.1 0 2 .9 2 2v12c0 1.1-.9 2-2 2H27.3M17.7 38.4H10c-1.1 0-2-.9-2-2v-12c0-1.1.9-2 2-2h8.4M10 38.4h7.7v4.3H10zM46.7 38.4h7.7v4.3h-7.7z"/><circle cx="22.8" cy="30.4" r="9.2"/><path d="M37 27h13M37 32h13"/></g></svg><svg width="38" height="38" viewBox="-6 -6 76 76" id="washer" x="190"><g fill="none" stroke="#333" stroke-width="2" stroke-linecap="round" stroke-linejoin="round" stroke-miterlimit="10"><path d="M51 53.5c0 .6-.4 1-1 1H14c-.6 0-1-.4-1-1v-43c0-.6.4-1 1-1h36c.6 0 1 .4 1 1v43z"/><circle cx="32" cy="37.6" r="12.7"/><circle cx="32" cy="37.6" r="9"/><path d="M13 20.5h38"/><circle cx="44.5" cy="14.5" r="2"/><circle cx="37" cy="14.5" r="2"/><path d="M18 13.5h9M18 16.5h9M41 38c0 .8-.7 1.5-1.5 1.5h-3c-.8 0-1.5-.7-1.5-1.5s.7-1.5 1.5-1.5h3c.8 0 1.5.7 1.5 1.5z"/></g></svg><svg width="38" height="38" viewBox="-6 -6 76 76" id="wifi" x="190" y="38"><g fill="none" stroke="#333" stroke-width="2" stroke-linecap="round" stroke-linejoin="round" stroke-miterlimit="10"><circle cx="32" cy="45.6" r="3.8"/><path d="M20.6 37.5c2.3-3.5 6.6-5.8 11.5-5.8 4.8 0 9 2.3 11.4 5.7M16.2 31.1c3.2-4.8 9.1-8 15.8-8 6.6 0 12.5 3.1 15.7 7.9"/><path d="M12.5 24.5c4-5.9 11.3-9.9 19.6-9.9 8.2 0 15.4 3.9 19.5 9.7"/></g></svg><svg width="38" height="38" viewBox="-6 -6 76 76" id="work" x="190" y="76"><g fill="none" stroke="#333" stroke-width="2" stroke-linecap="round" stroke-linejoin="round" stroke-miterlimit="10"><circle cx="19.4" cy="38" r="4.5"/><path d="M25.9 51.6v-3.9c0-2.8-2.3-5.1-5.1-5.1h-3.2c-2.6 0-4.7 2.1-4.7 4.7v4.3h13z"/><circle cx="21.8" cy="15.9" r="3.6"/><path d="M27 26v-2.5c0-2.2-1.9-4.5-4.1-4.5h-2.2c-2.2 0-4.7 2.3-4.7 4.5V26h11z"/><circle cx="42.5" cy="15.9" r="3.6"/><path d="M48 26v-2.5c0-2.2-2.1-4.5-4.4-4.5h-2.2c-2.2 0-5.4 2.3-5.4 4.5V26h12zM38.8 49.2H25.9M12.9 49.2h-6L13 26.6h36.8l7.3 22.6h-5.3"/><g><circle cx="45.3" cy="38" r="4.5"/><path d="M51.8 51.6v-3.9c0-2.8-2.3-5.1-5.1-5.1h-3.2c-2.6 0-4.7 2.1-4.7 4.7v4.3h13z"/></g></g></svg></svg>