<svg id="Layer_1" data-name="Layer 1" xmlns="http://www.w3.org/2000/svg" viewBox="0 0 32.8 45.8"><defs><style>.cls-1{fill:none;stroke:#008a6f;stroke-linecap:round;stroke-linejoin:round;stroke-width:2px;}</style></defs><title>vehicle</title><path class="cls-1" d="M35.4,46c4.5-7,12-16.3,12-22.2C47.4,15.3,40.5,10,32,10S16.6,15.3,16.6,23.8c0,5.9,7.4,15.1,12,22.1h6.8Z" transform="translate(-15.6 -9)"/><path class="cls-1" d="M33.9,46c2.5-7,6.7-16.3,6.7-22.2C40.6,15.3,36.8,10,32,10s-8.6,5.3-8.6,13.8c0,5.9,4.2,15.1,6.7,22.1h3.8Z" transform="translate(-15.6 -9)"/><path class="cls-1" d="M33,53.8H31.4a2.3,2.3,0,0,1-2.3-2.3V49.7h6.2v1.8A2.3,2.3,0,0,1,33,53.8Z" transform="translate(-15.6 -9)"/></svg>