<?xml version="1.0" encoding="utf-8"?>
<!-- Generator: Adobe Illustrator 20.0.0, SVG Export Plug-In . SVG Version: 6.00 Build 0)  -->
<svg version="1.1" id="Layer_1" xmlns="http://www.w3.org/2000/svg" xmlns:xlink="http://www.w3.org/1999/xlink" x="0px" y="0px"
	 viewBox="0 0 210 100" style="enable-background:new 0 0 210 100;" xml:space="preserve">
<style type="text/css">
	.st0{fill:#FDC20F;}
	.st1{fill:#D43231;}
	.st2{fill:#7A231F;}
	.st3{fill:#40ACE2;}
	.st4{fill:#FFFFFF;}
</style>
<path class="st0" d="M10.2,28.7h80v42.9h-80L10.2,28.7z"/>
<path class="st1" d="M10.2,10.1h80v18.6h-80L10.2,10.1z M10.2,71.6h80v18.6h-80L10.2,71.6z"/>
<g>
	<g>
		<path class="st2" d="M50.4,60.9c-2.7,0-5-0.8-6.2-2v0.8c0,0.6-0.4,1-1,1h-3.9c-0.6,0-1-0.4-1-1v-1.8c0-0.4,0.2-0.7,0.6-0.9v-5.5
			h-0.5c-0.6,0-1-0.4-1-1v-1.4c0-0.6,0.4-1,1-1h0.5v-2.7c0-0.1,0-0.3,0.1-0.4c-0.1-0.2-0.1-0.5-0.1-0.7c0-1.5,1.7-1.5,2.3-1.5
			c2.2,0,2.4,1.2,2.4,1.6c0.2-0.1,0.4-0.2,0.6-0.2h12.3c0.2,0,0.4,0.1,0.6,0.2v-0.1c0-1.5,1.7-1.5,2.3-1.5c2.2,0,2.4,1.3,2.4,1.6
			c0,0.2,0,0.4-0.1,0.6c0,0.1,0.1,0.2,0.1,0.4v2.7H62c0.6,0,1,0.4,1,1v1.4c0,0.6-0.4,1-1,1h-0.2v5.4c0.4,0.2,0.6,0.5,0.6,0.9v1.8
			c0,0.6-0.4,1-1,1h-3.9c-0.6,0-1-0.4-1-1v-0.8C55.4,60.2,53.1,60.9,50.4,60.9L50.4,60.9z"/>
		<path class="st2" d="M59.5,44c0.6,0,1.4,0.1,1.4,0.6c0,0.4-0.4,0.7-0.6,0.9h0.5v3.7H62v1.4h-1.2v7.3h0.6v1.8h-3.9v-1.8h0.6v-7.3
			h-1.6V57c-0.1,1.7-2.8,3-6.1,3s-6-1.3-6.1-3v-6.4h-1.7V58h0.6v1.8h-3.9V58h0.6v-7.4h-1.5v-1.4h1.5v-3.7h0.4
			c-0.2-0.2-0.5-0.7-0.5-1.1c0-0.5,0.7-0.5,1.3-0.5s1.4,0.1,1.4,0.6c0,0.4-0.4,0.7-0.6,0.9h0.5v3.7h1.7v-3.8h12.3v3.8H58v-3.7h0.4
			c-0.2-0.2-0.5-0.7-0.5-1.1C58.2,44,58.9,44,59.5,44 M59.5,42c-1.9,0-2.7,0.7-3.1,1.4H44.3c-0.5-0.8-1.4-1.4-3.1-1.4
			c-2.9,0-3.3,1.6-3.3,2.5c0,0.2,0,0.5,0.1,0.7v2.1c-0.9,0.2-1.5,1-1.5,1.9v1.4c0,0.9,0.6,1.7,1.5,1.9v4c-0.4,0.4-0.6,0.9-0.6,1.4
			v1.8c0,1.1,0.9,2,2,2h3.9c0.8,0,1.4-0.4,1.7-1c1.4,0.8,3.3,1.2,5.4,1.2c2.1,0,4-0.5,5.4-1.2c0.3,0.6,1,1,1.7,1h3.9
			c1.1,0,2-0.9,2-2v-1.8c0-0.6-0.2-1.1-0.6-1.4v-4.1c0.7-0.3,1.2-1,1.2-1.8v-1.4c0-0.8-0.5-1.5-1.2-1.8v-1.8v-0.3
			c0-0.2,0.1-0.4,0.1-0.6C62.9,43.4,62,42,59.5,42L59.5,42z"/>
	</g>
	<g>
		<path class="st2" d="M50.4,46c-2.8,0-4.5-0.1-4.9-1l-2.4-2.6c-0.2-0.2-0.3-0.4-0.3-0.7c0-2.4,2.8-4,7.4-4c2.5,0,7.6,0,7.6,4
			c0,1.4-1.3,2.1-2,2.5c-0.2,0.1-0.4,0.2-0.5,0.3C55,46,52.9,46,50.4,46L50.4,46z"/>
		<path class="st2" d="M50.3,38.7c3.9,0,6.6,0.5,6.6,3c0,1.5-2.6,1.7-2.6,2.6c0,0.6-2.2,0.6-3.9,0.6s-4,0-4-0.5l-2.6-2.8
			C43.8,39.9,46.4,38.7,50.3,38.7 M50.3,36.7c-6.2,0-8.4,2.6-8.4,5c0,0.5,0.2,1,0.5,1.3l2.2,2.4c0.7,1.5,3.2,1.5,5.8,1.5
			c2.4,0,5.1,0,5.8-1.8c0,0,0.1,0,0.1-0.1c0.8-0.4,2.6-1.4,2.6-3.4C58.8,36.7,52.6,36.7,50.3,36.7L50.3,36.7z"/>
	</g>
</g>
<path class="st3" d="M103,10h40.6v40.3H103V10z"/>
<g>
	<path class="st4" d="M111.5,14.3c-0.4,0-0.7,0.2-0.8,0.6l-0.6,1.7h-1.8c-0.4,0-0.7,0.2-0.8,0.6c-0.1,0.3,0,0.7,0.3,0.9l1.5,1.1
		l-0.6,1.7c-0.1,0.3,0,0.7,0.3,0.9c0.1,0.1,0.3,0.2,0.5,0.2s0.3-0.1,0.5-0.2l1.5-1.1l1.5,1.1c0.1,0.1,0.3,0.2,0.5,0.2
		s0.3-0.1,0.5-0.2c0.3-0.2,0.4-0.6,0.3-0.9l-0.6-1.7l1.4-1c0.2-0.1,0.4-0.4,0.4-0.7c0-0.5-0.4-0.8-0.8-0.8h-1.8l-0.6-1.7
		C112.2,14.5,111.9,14.3,111.5,14.3L111.5,14.3z"/>
</g>
<g>
	<path class="st4" d="M123.4,14.3c-0.4,0-0.7,0.2-0.8,0.6l-0.6,1.7h-1.8c-0.4,0-0.7,0.2-0.8,0.6c-0.1,0.3,0,0.7,0.3,0.9l1.5,1.1
		l-0.6,1.7c-0.1,0.3,0,0.7,0.3,0.9c0.1,0.1,0.3,0.2,0.5,0.2s0.3-0.1,0.5-0.2l1.5-1.1l1.5,1.1c0.1,0.1,0.3,0.2,0.5,0.2
		s0.3-0.1,0.5-0.2c0.3-0.2,0.4-0.6,0.3-0.9l-0.6-1.7l1.4-1c0.2-0.1,0.4-0.4,0.4-0.7c0-0.5-0.4-0.8-0.8-0.8h-1.8l-0.6-1.7
		C124.1,14.5,123.8,14.3,123.4,14.3L123.4,14.3z"/>
</g>
<g>
	<path class="st4" d="M135.3,14.3c-0.4,0-0.7,0.2-0.8,0.6l-0.6,1.7h-1.8c-0.4,0-0.7,0.2-0.8,0.6c-0.1,0.3,0,0.7,0.3,0.9l1.5,1.1
		l-0.6,1.7c-0.1,0.3,0,0.7,0.3,0.9c0.1,0.1,0.3,0.2,0.5,0.2s0.3-0.1,0.5-0.2l1.5-1.1l1.5,1.1c0.1,0.1,0.3,0.2,0.5,0.2
		s0.3-0.1,0.5-0.2c0.3-0.2,0.4-0.6,0.3-0.9l-0.6-1.7l1.4-1c0.2-0.1,0.4-0.4,0.4-0.7c0-0.5-0.4-0.8-0.8-0.8h-1.8l-0.7-1.9
		C135.9,14.5,135.6,14.3,135.3,14.3L135.3,14.3z"/>
</g>
<g>
	<path class="st4" d="M111.5,26.2c-0.4,0-0.7,0.2-0.8,0.6l-0.6,1.7h-1.8c-0.4,0-0.7,0.2-0.8,0.6c-0.1,0.3,0,0.7,0.3,0.9l1.5,1.1
		l-0.6,1.7c-0.1,0.3,0,0.7,0.3,0.9c0.1,0.1,0.3,0.2,0.5,0.2s0.3-0.1,0.5-0.2l1.5-1.1l1.5,1.1c0.1,0.1,0.3,0.2,0.5,0.2
		s0.3-0.1,0.5-0.2c0.3-0.2,0.4-0.6,0.3-0.9l-0.6-1.7l1.4-1c0.2-0.1,0.4-0.4,0.4-0.7c0-0.5-0.4-0.8-0.8-0.8h-1.8l-0.6-1.7
		C112.2,26.4,111.9,26.2,111.5,26.2L111.5,26.2z"/>
</g>
<g>
	<path class="st4" d="M123.4,26.2c-0.4,0-0.7,0.2-0.8,0.6l-0.6,1.7h-1.8c-0.4,0-0.7,0.2-0.8,0.6c-0.1,0.3,0,0.7,0.3,0.9l1.5,1.1
		l-0.6,1.7c-0.1,0.3,0,0.7,0.3,0.9c0.1,0.1,0.3,0.2,0.5,0.2s0.3-0.1,0.5-0.2l1.5-1.1l1.5,1.1c0.1,0.1,0.3,0.2,0.5,0.2
		s0.3-0.1,0.5-0.2c0.3-0.2,0.4-0.6,0.3-0.9l-0.6-1.7l1.4-1c0.2-0.1,0.4-0.4,0.4-0.7c0-0.5-0.4-0.8-0.8-0.8h-1.8l-0.6-1.7
		C124.1,26.4,123.8,26.2,123.4,26.2L123.4,26.2z"/>
</g>
<g>
	<path class="st4" d="M135.3,26.2c-0.4,0-0.7,0.2-0.8,0.6l-0.6,1.7h-1.8c-0.4,0-0.7,0.2-0.8,0.6c-0.1,0.3,0,0.7,0.3,0.9l1.5,1.1
		l-0.6,1.7c-0.1,0.3,0,0.7,0.3,0.9c0.1,0.1,0.3,0.2,0.5,0.2s0.3-0.1,0.5-0.2l1.5-1.1l1.5,1.1c0.1,0.1,0.3,0.2,0.5,0.2
		s0.3-0.1,0.5-0.2c0.3-0.2,0.4-0.6,0.3-0.9l-0.6-1.7l1.4-1c0.2-0.1,0.4-0.4,0.4-0.7c0-0.5-0.4-0.8-0.8-0.8h-1.8l-0.6-1.7
		C135.9,26.4,135.6,26.2,135.3,26.2L135.3,26.2z"/>
</g>
<g>
	<path class="st4" d="M111.5,38c-0.4,0-0.7,0.2-0.8,0.6l-0.6,1.7h-1.8c-0.4,0-0.7,0.2-0.8,0.6c-0.1,0.3,0,0.7,0.3,0.9l1.5,1.1
		l-0.6,1.7c-0.1,0.3,0,0.7,0.3,0.9c0.1,0.1,0.3,0.2,0.5,0.2s0.3-0.1,0.5-0.2l1.5-1.1l1.5,1.1c0.1,0.1,0.3,0.2,0.5,0.2
		s0.3-0.1,0.5-0.2c0.3-0.2,0.4-0.6,0.3-0.9l-0.6-1.7l1.4-1c0.2-0.1,0.4-0.4,0.4-0.7c0-0.5-0.4-0.8-0.8-0.8h-1.8l-0.6-1.7
		C112.2,38.3,111.9,38,111.5,38L111.5,38z"/>
</g>
<g>
	<path class="st4" d="M123.4,38c-0.4,0-0.7,0.2-0.8,0.6l-0.6,1.7h-1.8c-0.4,0-0.7,0.2-0.8,0.6c-0.1,0.3,0,0.7,0.3,0.9l1.5,1.1
		l-0.6,1.7c-0.1,0.3,0,0.7,0.3,0.9c0.1,0.1,0.3,0.2,0.5,0.2s0.3-0.1,0.5-0.2l1.5-1.1l1.5,1.1c0.1,0.1,0.3,0.2,0.5,0.2
		s0.3-0.1,0.5-0.2c0.3-0.2,0.4-0.6,0.3-0.9l-0.6-1.7l1.4-1c0.2-0.1,0.4-0.4,0.4-0.7c0-0.5-0.4-0.8-0.8-0.8h-1.8l-0.6-1.7
		C124.1,38.3,123.8,38,123.4,38L123.4,38z"/>
</g>
<g>
	<path class="st4" d="M135.3,38c-0.4,0-0.7,0.2-0.8,0.6l-0.6,1.7h-1.8c-0.4,0-0.7,0.2-0.8,0.6c-0.1,0.3,0,0.7,0.3,0.9l1.5,1.1
		l-0.6,1.7c-0.1,0.3,0,0.7,0.3,0.9c0.1,0.1,0.3,0.2,0.5,0.2s0.3-0.1,0.5-0.2l1.5-1.1l1.5,1.1c0.1,0.1,0.3,0.2,0.5,0.2
		s0.3-0.1,0.5-0.2c0.3-0.2,0.4-0.6,0.3-0.9l-0.6-1.7l1.4-1c0.2-0.1,0.4-0.4,0.4-0.7c0-0.5-0.4-0.8-0.8-0.8h-1.8l-0.6-1.7
		C135.9,38.3,135.6,38,135.3,38L135.3,38z"/>
</g>
<g>
	<path class="st1" d="M143.5,50.3H103V60h80v-9.7H143.5z M103,70.3h80V80h-80V70.3z M143.5,10H183v10h-39.5V10z M143.5,30.3H183V40
		h-39.5V30.3z"/>
</g>
<path class="st4" d="M143.5,40H183v10.3h-39.5V40z M143.5,20H183v10.3h-39.5V20z"/>
<path class="st4" d="M103,60h80v10.3h-80V60z M103,80h80v10h-80V80z"/>
</svg>
