<?xml version="1.0" encoding="utf-8"?>
<!-- Generator: Adobe Illustrator 20.0.0, SVG Export Plug-In . SVG Version: 6.00 Build 0)  -->
<svg version="1.1" id="Layer_1" xmlns="http://www.w3.org/2000/svg" xmlns:xlink="http://www.w3.org/1999/xlink" x="0px" y="0px"
	 viewBox="0 0 100 100" style="enable-background:new 0 0 100 100;" xml:space="preserve">
<style type="text/css">
	.st0{fill:#008A6F;}
	.st1{fill:#00B692;}
</style>
<g>
	<path class="st0" d="M89.7,42.6c-1.4-6.9-6.4-11.7-12.2-10.6c-5.8,1.1-7,8.5-5.6,11.9c1.5,3.8,4.1,6.8,5.4,8.8
		c4.9,7.6-2.9,18.9-14.4,14c-1,1.4-2.6,4-4.1,5.5C79.5,82,93.7,62.8,89.7,42.6z"/>
	<path class="st1" d="M58,34.9c-5.5-0.8-10.8,4.5-11.9,11.9c-0.4,2.4,0.3,6.9,0.3,6.9c4,20.5-9.2,25.1-15.9,22.3
		c-9.5-4-10-16.6,3-27.6c10.4-8.8,5.7-24.6-1.7-27.4c-7.4-2.9-16.7,1.3-20.5,13c-4.6,14.2-2.8,44.6,22.4,48c4.9,0.7,23.4-2,31-28.3
		C67.3,45.2,64.6,35.9,58,34.9z"/>
</g>
</svg>
