<svg id="Layer_1" data-name="Layer 1" xmlns="http://www.w3.org/2000/svg" viewBox="0 0 37.54 28.76"><defs><style>.cls-1{fill:#fff;}</style></defs><title>waysily-logo-secondary-short</title><path class="cls-1" d="M43.72,12.93C43.08,9.74,40.77,7.49,38.08,8s-3.24,3.92-2.59,5.54a21.87,21.87,0,0,0,2.5,4.1c2.27,3.5-1.34,8.79-6.69,6.49a22,22,0,0,1-1.92,2.55C39,31.19,45.6,22.28,43.72,12.93Z" transform="translate(-6.5 -2.43)"/><path class="cls-1" d="M29,9.33c-2.53-.38-5,2.09-5.51,5.52A14.39,14.39,0,0,0,23.67,18c1.85,9.51-4.27,11.63-7.37,10.33-4.42-1.85-4.62-7.68,1.4-12.81,4.82-4.1,2.65-11.4-.79-12.72s-7.73.62-9.49,6c-2.13,6.6-1.31,20.69,10.38,22.27,2.29.31,10.84-.94,14.39-13.11C33.34,14.13,32.1,9.79,29,9.33Z" transform="translate(-6.5 -2.43)"/></svg>