<svg id="Layer_1" data-name="Layer 1" xmlns="http://www.w3.org/2000/svg" viewBox="0 0 145 33"><defs><style>.cls-1{fill:#008a6f;}.cls-2,.cls-3{fill:#00b692;}.cls-3{font-size:25px;font-family:TypoGroteskRounded, Typo Grotesk Rounded;}</style></defs><title>Artboard 1</title><path class="cls-1" d="M43.7,12.9c-.6-3.2-2.9-5.4-5.6-4.9s-3.2,3.9-2.6,5.5A21.9,21.9,0,0,0,38,17.7c2.3,3.5-1.3,8.8-6.7,6.5a22,22,0,0,1-1.9,2.6C39,31.2,45.6,22.3,43.7,12.9Z"/><path class="cls-2" d="M29,9.3c-2.5-.4-5,2.1-5.5,5.5a14.4,14.4,0,0,0,.1,3.2c1.8,9.5-4.3,11.6-7.4,10.3s-4.6-7.7,1.4-12.8,2.7-11.4-.8-12.7-7.7.6-9.5,6S6.1,29.6,17.8,31.2c2.3.3,10.8-.9,14.4-13.1C33.3,14.1,32.1,9.8,29,9.3Z"/><text class="cls-3" transform="translate(52.3 25.3)">waysily</text></svg>