<?xml version="1.0" encoding="utf-8"?>
<!-- Generator: Adobe Illustrator 17.1.0, SVG Export Plug-In . SVG Version: 6.00 Build 0)  -->
<!DOCTYPE svg PUBLIC "-//W3C//DTD SVG 1.1//EN" "http://www.w3.org/Graphics/SVG/1.1/DTD/svg11.dtd">
<svg version="1.1" id="Layer_1" xmlns="http://www.w3.org/2000/svg" xmlns:xlink="http://www.w3.org/1999/xlink" x="0px" y="0px"
	 width="64px" height="64px" viewBox="0 0 64 64" enable-background="new 0 0 64 64" xml:space="preserve">
<g>
	<path fill="none" stroke="#333333" stroke-width="2" stroke-linecap="round" stroke-linejoin="round" stroke-miterlimit="10" d="
		M53,35.8H11c-1.4,0-2.5-1.1-2.5-2.5l0,0c0-1.4,1.1-2.5,2.5-2.5h42c1.4,0,2.5,1.1,2.5,2.5l0,0C55.5,34.7,54.4,35.8,53,35.8z"/>
	<path fill="none" stroke="#333333" stroke-width="2" stroke-linecap="round" stroke-linejoin="round" stroke-miterlimit="10" d="
		M53.9,35.8H10.1l1,7c0,4.1,3.3,7.4,7.4,7.4h27c4.1,0,7.4-3.3,7.4-7.4L53.9,35.8z"/>
	<path fill="none" stroke="#333333" stroke-width="2" stroke-linecap="round" stroke-linejoin="round" stroke-miterlimit="10" d="
		M12.8,47.6l-1.3,3.3c-0.5,1.1,0.1,2.5,1.3,2.9c1.1,0.5,2.5-0.1,2.9-1.3l1-2.6C15.2,49.6,13.8,48.8,12.8,47.6z"/>
	<path fill="none" stroke="#333333" stroke-width="2" stroke-linecap="round" stroke-linejoin="round" stroke-miterlimit="10" d="
		M51.2,47.6l1.3,3.3c0.5,1.1-0.1,2.5-1.3,2.9c-1.1,0.5-2.5-0.1-2.9-1.3l-1-2.6C48.8,49.6,50.2,48.8,51.2,47.6z"/>
	<path fill="none" stroke="#333333" stroke-width="2" stroke-linecap="round" stroke-linejoin="round" stroke-miterlimit="10" d="
		M11.5,30V16c0-3.3,2.7-6,6-6l0,0c2.1,0,3.9,1,5,2.6"/>
	<path fill="none" stroke="#333333" stroke-width="2" stroke-linecap="round" stroke-linejoin="round" stroke-miterlimit="10" d="
		M29,16.9H17.5l0.2-0.4c1.1-2,3.2-3.3,5.5-3.3l0,0c2.3,0,4.4,1.3,5.5,3.3L29,16.9z"/>
	<g>
		
			<line fill="none" stroke="#333333" stroke-width="2" stroke-linecap="round" stroke-linejoin="round" stroke-miterlimit="10" x1="18" y1="21" x2="18" y2="22"/>
		
			<line fill="none" stroke="#333333" stroke-width="2" stroke-linecap="round" stroke-linejoin="round" stroke-miterlimit="10" x1="24" y1="21" x2="24" y2="22"/>
		
			<line fill="none" stroke="#333333" stroke-width="2" stroke-linecap="round" stroke-linejoin="round" stroke-miterlimit="10" x1="21" y1="25" x2="21" y2="26"/>
		
			<line fill="none" stroke="#333333" stroke-width="2" stroke-linecap="round" stroke-linejoin="round" stroke-miterlimit="10" x1="27" y1="25" x2="27" y2="26"/>
		
			<line fill="none" stroke="#333333" stroke-width="2" stroke-linecap="round" stroke-linejoin="round" stroke-miterlimit="10" x1="30" y1="21" x2="30" y2="22"/>
	</g>
</g>
</svg>
