<?xml version="1.0" encoding="utf-8"?>
<!-- Generator: Adobe Illustrator 17.1.0, SVG Export Plug-In . SVG Version: 6.00 Build 0)  -->
<!DOCTYPE svg PUBLIC "-//W3C//DTD SVG 1.1//EN" "http://www.w3.org/Graphics/SVG/1.1/DTD/svg11.dtd">
<svg version="1.1" id="Layer_1" xmlns="http://www.w3.org/2000/svg" xmlns:xlink="http://www.w3.org/1999/xlink" x="0px" y="0px"
	 width="64px" height="64px" viewBox="0 0 64 64" enable-background="new 0 0 64 64" xml:space="preserve">
<g>
	<path fill="none" stroke="#333333" stroke-width="2" stroke-linecap="round" stroke-linejoin="round" stroke-miterlimit="10" d="
		M50.2,47.5c0,1.5-1.2,2.5-2.7,2.5H16.6c-1.5,0-2.7-1-2.7-2.5l0.9-16.4c0-1.5,1.2-3.1,2.7-3.1h29.1c1.5,0,2.7,1.5,2.7,3.1L50.2,47.5
		z"/>
	
		<line fill="none" stroke="#333333" stroke-width="2" stroke-linecap="round" stroke-linejoin="round" stroke-miterlimit="10" x1="15" y1="45" x2="50" y2="45"/>
	
		<rect x="16" y="50" fill="none" stroke="#333333" stroke-width="2" stroke-linecap="round" stroke-linejoin="round" stroke-miterlimit="10" width="6" height="3"/>
	
		<rect x="42" y="50" fill="none" stroke="#333333" stroke-width="2" stroke-linecap="round" stroke-linejoin="round" stroke-miterlimit="10" width="6" height="3"/>
	<g>
		<path fill="none" stroke="#333333" stroke-width="2" stroke-linecap="round" stroke-linejoin="round" stroke-miterlimit="10" d="
			M37,28v-7.7c0,0,4.2-1.5,3-5.3c-1.2-3.6-5.9-4.1-11-4.1h0.2c-5.1,0-9.9,0.4-11,4.1C17,18.8,21,20.3,21,20.3V28"/>
		<g>
			<path fill="none" stroke="#333333" stroke-width="2" stroke-linecap="round" stroke-linejoin="round" stroke-miterlimit="10" d="
				M47,15.2c-1.2-3.6-5.8-3.9-10.8-3.9c-1.2,0-2.4,0-3.5,0.1c3.5,0.2,6.5,1.1,7.4,3.8c1.2,3.7-3,5.1-3,5.1V28h7v-7.7
				C44,20.3,48.2,19,47,15.2z"/>
			<path fill="none" stroke="#333333" stroke-width="2" stroke-linecap="round" stroke-linejoin="round" stroke-miterlimit="10" d="
				M36.1,11.4c0,0,0.1,0,0.1,0c0,0,0.1,0,0.1,0H36.1z"/>
		</g>
	</g>
</g>
</svg>
