<?xml version="1.0" encoding="utf-8"?>
<!-- Generator: Adobe Illustrator 17.1.0, SVG Export Plug-In . SVG Version: 6.00 Build 0)  -->
<!DOCTYPE svg PUBLIC "-//W3C//DTD SVG 1.1//EN" "http://www.w3.org/Graphics/SVG/1.1/DTD/svg11.dtd">
<svg version="1.1" id="Layer_1" xmlns="http://www.w3.org/2000/svg" xmlns:xlink="http://www.w3.org/1999/xlink" x="0px" y="0px"
	 width="64px" height="64px" viewBox="0 0 64 64" enable-background="new 0 0 64 64" xml:space="preserve">
<g>
	<g>
		<path fill="none" stroke="#333333" stroke-width="2" stroke-linecap="round" stroke-linejoin="round" stroke-miterlimit="10" d="
			M24.6,33.1c5.2,0.1,9.2,1.1,9.2,2.1c0,1.2-4.8,2.2-10.7,2.2s-10.7-1-10.7-2.2c0-1.1,3.7-1.9,8.7-2.1"/>
		
			<circle fill="none" stroke="#333333" stroke-width="2" stroke-linecap="round" stroke-linejoin="round" stroke-miterlimit="10" cx="23.1" cy="13.6" r="3.5"/>
		<path fill="none" stroke="#333333" stroke-width="2" stroke-linecap="round" stroke-linejoin="round" stroke-miterlimit="10" d="
			M23.1,35.2c0.8,0,1.2-0.7,1.2-0.7l0.5-5.7c0,0,0.8-0.3,1.8-0.8c1-0.6,1.2-7.7,1.2-9.3c0-1.6-4.8-1.6-4.8-1.6s-4.8,0-4.8,1.6
			c0,1.6,0.2,8.7,1.2,9.3c1,0.6,1.8,0.8,1.8,0.8l0.5,5.7C21.8,34.4,22.3,35.2,23.1,35.2z"/>
	</g>
	<g>
		
			<polyline fill="none" stroke="#333333" stroke-width="2" stroke-linecap="round" stroke-linejoin="round" stroke-miterlimit="10" points="
			17,41 36,41 36,27 28,27 		"/>
		
			<polyline fill="none" stroke="#333333" stroke-width="2" stroke-linecap="round" stroke-linejoin="round" stroke-miterlimit="10" points="
			52,41 42,41 42,27 52,27 		"/>
		
			<polyline fill="none" stroke="#333333" stroke-width="2" stroke-linecap="round" stroke-linejoin="round" stroke-miterlimit="10" points="
			17,46 36,46 36,54 		"/>
		
			<polyline fill="none" stroke="#333333" stroke-width="2" stroke-linecap="round" stroke-linejoin="round" stroke-miterlimit="10" points="
			42,54 42,46 52,46 		"/>
		
			<line fill="none" stroke="#333333" stroke-width="2" stroke-linecap="round" stroke-linejoin="round" stroke-miterlimit="10" x1="29" y1="22" x2="52" y2="22"/>
	</g>
</g>
</svg>
