<?xml version="1.0" encoding="utf-8"?>
<!-- Generator: Adobe Illustrator 17.1.0, SVG Export Plug-In . SVG Version: 6.00 Build 0)  -->
<!DOCTYPE svg PUBLIC "-//W3C//DTD SVG 1.1//EN" "http://www.w3.org/Graphics/SVG/1.1/DTD/svg11.dtd">
<svg version="1.1" id="Layer_1" xmlns="http://www.w3.org/2000/svg" xmlns:xlink="http://www.w3.org/1999/xlink" x="0px" y="0px"
	 width="64px" height="64px" viewBox="0 0 64 64" enable-background="new 0 0 64 64" xml:space="preserve">
<g>
	<path fill="none" stroke="#333333" stroke-width="2" stroke-linecap="round" stroke-linejoin="round" stroke-miterlimit="10" d="
		M48.4,29.3c0,0,6.3-0.8,6.3,6.3c0,7.1-9.2,7.5-9.2,7.5"/>
	<g>
		<path fill="none" stroke="#333333" stroke-width="2" stroke-linecap="round" stroke-linejoin="round" stroke-miterlimit="10" d="
			M37,9.1c1.1,1.3,1.2,3.3,0.2,4.7l0,0c-1,1.4-0.9,3.2,0.1,4.6"/>
		<path fill="none" stroke="#333333" stroke-width="2" stroke-linecap="round" stroke-linejoin="round" stroke-miterlimit="10" d="
			M29,9.1c1.1,1.3,1.2,3.3,0.2,4.7l0,0c-1,1.4-0.9,3.2,0.1,4.6"/>
		<path fill="none" stroke="#333333" stroke-width="2" stroke-linecap="round" stroke-linejoin="round" stroke-miterlimit="10" d="
			M21,9.1c1.1,1.3,1.2,3.3,0.2,4.7l0,0c-1,1.4-0.9,3.2,0.1,4.6"/>
	</g>
	<path fill="none" stroke="#333333" stroke-width="2" stroke-linecap="round" stroke-linejoin="round" stroke-miterlimit="10" d="
		M39.6,54.9H21.3c-4.4,0-8.7-1.5-11.9-4.1h0h42.2l0,0C48.3,53.4,44.1,54.9,39.6,54.9z"/>
	<path fill="none" stroke="#333333" stroke-width="2" stroke-linecap="round" stroke-linejoin="round" stroke-miterlimit="10" d="
		M38.3,50.2c3.8-3,6.5-6.1,7.3-10.7l2.1-13.3H12.6l2.1,13.3c0.7,4.5,3.5,7.7,7.3,10.7"/>
</g>
</svg>
