<?xml version="1.0" encoding="utf-8"?>
<!-- Generator: Adobe Illustrator 17.1.0, SVG Export Plug-In . SVG Version: 6.00 Build 0)  -->
<!DOCTYPE svg PUBLIC "-//W3C//DTD SVG 1.1//EN" "http://www.w3.org/Graphics/SVG/1.1/DTD/svg11.dtd">
<svg version="1.1" id="Layer_1" xmlns="http://www.w3.org/2000/svg" xmlns:xlink="http://www.w3.org/1999/xlink" x="0px" y="0px"
	 width="64px" height="64px" viewBox="0 0 64 64" enable-background="new 0 0 64 64" xml:space="preserve">
<g>
	
		<circle fill="none" stroke="#333333" stroke-width="2" stroke-linecap="round" stroke-linejoin="round" stroke-miterlimit="10" cx="32" cy="32" r="22.8"/>
	<path fill="none" stroke="#333333" stroke-width="2" stroke-linecap="round" stroke-linejoin="round" stroke-miterlimit="10" d="
		M32,49.3c9.5,0,2.2-4.8,2.2-14.3c0-9.5,4.5-16.3-1.2-19.8c-8.2-4.9-18.2,7.3-18.2,16.8C14.7,41.5,22.4,49.3,32,49.3z"/>
	<path fill="none" stroke="#333333" stroke-width="2" stroke-linecap="round" stroke-linejoin="round" stroke-miterlimit="10" d="
		M46.4,25.8c-0.1,0-0.1,0-0.2,0c0.1-0.4,0.2-0.9,0.2-1.4c0-3-2.4-5.4-5.4-5.4c-1,0-1.9,0.3-2.7,0.7c-0.7-1-1.8-1.8-3-2.1
		c1.7,3.8-1.1,9.7-1.1,17.2c0,4.2,1.4,7.5,2.2,9.9c0.8-0.4,1.4-1,1.9-1.7c0.8,0.5,1.7,0.7,2.7,0.7c3,0,5.4-2.4,5.4-5.4
		c0-0.5-0.1-0.9-0.2-1.4c0.1,0,0.1,0,0.2,0c3.1,0,5.7-2.5,5.7-5.7C52.1,28.3,49.5,25.8,46.4,25.8z"/>
	<path fill="none" stroke="#333333" stroke-width="2" stroke-linecap="round" stroke-linejoin="round" stroke-miterlimit="10" d="
		M31.4,46.4c5.3,0,0-4.5,0-12.1c0-7.6,4-13.1-0.2-15.8c-6-3.9-13.3,5.8-13.3,13.4C17.9,39.5,24.4,46.4,31.4,46.4z"/>
	
		<circle fill="none" stroke="#333333" stroke-width="2" stroke-linecap="round" stroke-linejoin="round" stroke-miterlimit="10" cx="25.8" cy="28" r="2.4"/>
	<g>
		<path fill="none" stroke="#333333" stroke-width="2" stroke-linecap="round" stroke-linejoin="round" stroke-miterlimit="10" d="
			M46.4,25.8c-0.1,0-0.1,0-0.2,0c0.1-0.4,0.2-0.9,0.2-1.4c0-3-2.4-5.4-5.4-5.4c-1,0-1.9,0.3-2.7,0.7c-0.7-1-1.8-1.8-3-2.1
			c1.7,3.8-1.1,9.7-1.1,17.2c0,4.2,1.4,7.5,2.2,9.9c0.8-0.4,1.4-1,1.9-1.7c0.8,0.5,1.7,0.7,2.7,0.7c3,0,5.4-2.4,5.4-5.4
			c0-0.5-0.1-0.9-0.2-1.4c0.1,0,0.1,0,0.2,0c3.1,0,5.7-2.5,5.7-5.7C52.1,28.3,49.5,25.8,46.4,25.8z"/>
		<path fill="none" stroke="#333333" stroke-width="2" stroke-linecap="round" stroke-linejoin="round" stroke-miterlimit="10" d="
			M34.3,32.5c0,0,8.2-1.9,10.9-1.2"/>
		
			<line fill="none" stroke="#333333" stroke-width="2" stroke-linecap="round" stroke-linejoin="round" stroke-miterlimit="10" x1="39" y1="27.1" x2="36.9" y2="31.6"/>
		
			<line fill="none" stroke="#333333" stroke-width="2" stroke-linecap="round" stroke-linejoin="round" stroke-miterlimit="10" x1="39" y1="31.6" x2="42.3" y2="35.8"/>
	</g>
</g>
</svg>
