<?xml version="1.0" encoding="utf-8"?>
<!-- Generator: Adobe Illustrator 17.1.0, SVG Export Plug-In . SVG Version: 6.00 Build 0)  -->
<!DOCTYPE svg PUBLIC "-//W3C//DTD SVG 1.1//EN" "http://www.w3.org/Graphics/SVG/1.1/DTD/svg11.dtd">
<svg version="1.1" id="Layer_1" xmlns="http://www.w3.org/2000/svg" xmlns:xlink="http://www.w3.org/1999/xlink" x="0px" y="0px"
	 width="64px" height="64px" viewBox="0 0 64 64" enable-background="new 0 0 64 64" xml:space="preserve">
<g>
	<g>
		
			<rect x="13" y="15" fill="none" stroke="#333333" stroke-width="2" stroke-linecap="round" stroke-linejoin="round" stroke-miterlimit="10" width="37" height="35"/>
		
			<rect x="13" y="15" fill="none" stroke="#333333" stroke-width="2" stroke-linecap="round" stroke-linejoin="round" stroke-miterlimit="10" width="7" height="7"/>
		
			<rect x="43" y="15" fill="none" stroke="#333333" stroke-width="2" stroke-linecap="round" stroke-linejoin="round" stroke-miterlimit="10" width="7" height="7"/>
		
			<rect x="13" y="22" fill="none" stroke="#333333" stroke-width="2" stroke-linecap="round" stroke-linejoin="round" stroke-miterlimit="10" width="7" height="7"/>
		
			<rect x="43" y="22" fill="none" stroke="#333333" stroke-width="2" stroke-linecap="round" stroke-linejoin="round" stroke-miterlimit="10" width="7" height="7"/>
		
			<rect x="13" y="29" fill="none" stroke="#333333" stroke-width="2" stroke-linecap="round" stroke-linejoin="round" stroke-miterlimit="10" width="7" height="7"/>
		
			<rect x="43" y="29" fill="none" stroke="#333333" stroke-width="2" stroke-linecap="round" stroke-linejoin="round" stroke-miterlimit="10" width="7" height="7"/>
		
			<rect x="13" y="36" fill="none" stroke="#333333" stroke-width="2" stroke-linecap="round" stroke-linejoin="round" stroke-miterlimit="10" width="7" height="7"/>
		
			<rect x="43" y="36" fill="none" stroke="#333333" stroke-width="2" stroke-linecap="round" stroke-linejoin="round" stroke-miterlimit="10" width="7" height="7"/>
		
			<rect x="13" y="43" fill="none" stroke="#333333" stroke-width="2" stroke-linecap="round" stroke-linejoin="round" stroke-miterlimit="10" width="7" height="7"/>
		
			<rect x="43" y="43" fill="none" stroke="#333333" stroke-width="2" stroke-linecap="round" stroke-linejoin="round" stroke-miterlimit="10" width="7" height="7"/>
	</g>
	<path fill="none" stroke="#333333" stroke-width="2" stroke-linecap="round" stroke-linejoin="round" stroke-miterlimit="10" d="
		M27.9,25.5l9.7,6.6c0.2,0.1,0.2,0.4,0,0.6l-9.7,6.6c-0.2,0.1-0.4,0-0.4-0.3V25.7C27.4,25.5,27.7,25.3,27.9,25.5z"/>
</g>
<g>
	<g>
		
			<rect x="13" y="15" fill="none" stroke="#333333" stroke-width="2" stroke-linecap="round" stroke-linejoin="round" stroke-miterlimit="10" width="37" height="35"/>
		
			<rect x="13" y="15" fill="none" stroke="#333333" stroke-width="2" stroke-linecap="round" stroke-linejoin="round" stroke-miterlimit="10" width="7" height="7"/>
		
			<rect x="43" y="15" fill="none" stroke="#333333" stroke-width="2" stroke-linecap="round" stroke-linejoin="round" stroke-miterlimit="10" width="7" height="7"/>
		
			<rect x="13" y="22" fill="none" stroke="#333333" stroke-width="2" stroke-linecap="round" stroke-linejoin="round" stroke-miterlimit="10" width="7" height="7"/>
		
			<rect x="43" y="22" fill="none" stroke="#333333" stroke-width="2" stroke-linecap="round" stroke-linejoin="round" stroke-miterlimit="10" width="7" height="7"/>
		
			<rect x="13" y="29" fill="none" stroke="#333333" stroke-width="2" stroke-linecap="round" stroke-linejoin="round" stroke-miterlimit="10" width="7" height="7"/>
		
			<rect x="43" y="29" fill="none" stroke="#333333" stroke-width="2" stroke-linecap="round" stroke-linejoin="round" stroke-miterlimit="10" width="7" height="7"/>
		
			<rect x="13" y="36" fill="none" stroke="#333333" stroke-width="2" stroke-linecap="round" stroke-linejoin="round" stroke-miterlimit="10" width="7" height="7"/>
		
			<rect x="43" y="36" fill="none" stroke="#333333" stroke-width="2" stroke-linecap="round" stroke-linejoin="round" stroke-miterlimit="10" width="7" height="7"/>
		
			<rect x="13" y="43" fill="none" stroke="#333333" stroke-width="2" stroke-linecap="round" stroke-linejoin="round" stroke-miterlimit="10" width="7" height="7"/>
		
			<rect x="43" y="43" fill="none" stroke="#333333" stroke-width="2" stroke-linecap="round" stroke-linejoin="round" stroke-miterlimit="10" width="7" height="7"/>
	</g>
	<path fill="none" stroke="#333333" stroke-width="2" stroke-linecap="round" stroke-linejoin="round" stroke-miterlimit="10" d="
		M27.9,25.5l9.7,6.6c0.2,0.1,0.2,0.4,0,0.6l-9.7,6.6c-0.2,0.1-0.4,0-0.4-0.3V25.7C27.4,25.5,27.7,25.3,27.9,25.5z"/>
</g>
</svg>
