<svg id="Layer_1" data-name="Layer 1" xmlns="http://www.w3.org/2000/svg" viewBox="0 0 23.9 25.8"><defs><style>.cls-1{fill:none;stroke:#333;stroke-linecap:round;stroke-linejoin:round;stroke-width:2px;}</style></defs><title>person</title><path class="cls-1" d="M27.6,30.5a6.9,6.9,0,0,1-1.1-5.7,5.9,5.9,0,0,1,4-4.5c3.9-1.2,7.5,2,7.5,6.2a6.9,6.9,0,0,1-1.2,3.9,1.8,1.8,0,0,0,.4,2.6,12.1,12.1,0,0,1,5.9,9.5A1.1,1.1,0,0,1,42,43.8H22.3a1.2,1.2,0,0,1-1.1-1.3A12.1,12.1,0,0,1,27.1,33,1.7,1.7,0,0,0,27.6,30.5Z" transform="translate(-20.2 -19)"/></svg>