<?xml version="1.0" encoding="utf-8"?>
<!-- Generator: Adobe Illustrator 17.1.0, SVG Export Plug-In . SVG Version: 6.00 Build 0)  -->
<!DOCTYPE svg PUBLIC "-//W3C//DTD SVG 1.1//EN" "http://www.w3.org/Graphics/SVG/1.1/DTD/svg11.dtd">
<svg version="1.1" id="Layer_1" xmlns="http://www.w3.org/2000/svg" xmlns:xlink="http://www.w3.org/1999/xlink" x="0px" y="0px"
	 width="64px" height="64px" viewBox="0 0 64 64" enable-background="new 0 0 64 64" xml:space="preserve">
<g>
	<path fill="none" stroke="#333333" stroke-width="2" stroke-linecap="round" stroke-linejoin="round" stroke-miterlimit="10" d="
		M31.8,35.7L31.8,35.7c-4.7,0-8.5-3.8-8.5-8.5v-9.7c0-4.7,3.8-8.5,8.5-8.5l0,0c4.7,0,8.5,3.8,8.5,8.5v9.7
		C40.3,31.9,36.5,35.7,31.8,35.7z"/>
	<path fill="#333333" d="M33.5,9.2c0,0.1,0,0.1,0,0.2c0,4.5,2.8,8.4,6.8,9.9v-1.8C40.3,13.4,37.4,10,33.5,9.2z"/>
	<path fill="#333333" d="M27.4,18.9c4.8,0,8.8-3.2,10.1-7.6c-1.5-1.4-3.5-2.3-5.8-2.3l0,0c-4.7,0-8.5,3.8-8.5,8.5v0.6
		C24.6,18.6,26,18.9,27.4,18.9z"/>
	<path fill="none" stroke="#333333" stroke-width="2" stroke-linecap="round" stroke-linejoin="round" stroke-miterlimit="10" d="
		M47.1,54.9H16.9c-0.6,0-1-0.4-1-1v-2.2c0-8.9,7.2-16.1,16.1-16.1l0,0c8.9,0,16.1,7.2,16.1,16.1v2.2C48.1,54.5,47.7,54.9,47.1,54.9z
		"/>
	<circle fill="#333333" cx="27.7" cy="23.1" r="1.1"/>
	<circle fill="#333333" cx="36" cy="23.1" r="1.1"/>
	<path fill="none" stroke="#333333" stroke-width="2" stroke-linecap="round" stroke-linejoin="round" stroke-miterlimit="10" d="
		M36,36.8c0,0-0.4,3.9-4.2,3.9s-4.2-3.9-4.2-3.9"/>
</g>
</svg>
