<?xml version="1.0" encoding="utf-8"?>
<!-- Generator: Adobe Illustrator 17.1.0, SVG Export Plug-In . SVG Version: 6.00 Build 0)  -->
<!DOCTYPE svg PUBLIC "-//W3C//DTD SVG 1.1//EN" "http://www.w3.org/Graphics/SVG/1.1/DTD/svg11.dtd">
<svg version="1.1" id="Layer_1" xmlns="http://www.w3.org/2000/svg" xmlns:xlink="http://www.w3.org/1999/xlink" x="0px" y="0px"
	 width="64px" height="64px" viewBox="0 0 64 64" enable-background="new 0 0 64 64" xml:space="preserve">
<g>
	<path fill="none" stroke="#333333" stroke-width="2" stroke-linecap="round" stroke-linejoin="round" stroke-miterlimit="10" d="
		M25,42V16.1c0-2.5,1.9-5.1,4.4-5.1h0.1c2.5,0,4.5,2.7,4.5,5.1V25"/>
	<path fill="none" stroke="#333333" stroke-width="2" stroke-linecap="round" stroke-linejoin="round" stroke-miterlimit="10" d="
		M51,25v-8.9c0-2.5-2-5.1-4.5-5.1h-0.1c-2.5,0-4.4,2.7-4.4,5.1V42"/>
	<path fill="none" stroke="#333333" stroke-width="2" stroke-linecap="round" stroke-linejoin="round" stroke-miterlimit="10" d="
		M24,25.7"/>
	
		<line fill="none" stroke="#333333" stroke-width="2" stroke-linecap="round" stroke-linejoin="round" stroke-miterlimit="10" x1="9" y1="25" x2="55" y2="25"/>
	<g>
		<path fill="none" stroke="#333333" stroke-width="2" stroke-linecap="round" stroke-linejoin="round" stroke-miterlimit="10" d="
			M9,42.7c3.8,0,3.8,4,7.7,4c3.8,0,3.8-4,7.7-4c3.8,0,3.8,4,7.7,4c3.8,0,3.8-4,7.7-4c3.8,0,3.8,4,7.7,4s3.8-4,7.7-4"/>
	</g>
	<g>
		<path fill="none" stroke="#333333" stroke-width="2" stroke-linecap="round" stroke-linejoin="round" stroke-miterlimit="10" d="
			M9,50.7c3.8,0,3.8,4,7.7,4c3.8,0,3.8-4,7.7-4c3.8,0,3.8,4,7.7,4c3.8,0,3.8-4,7.7-4c3.8,0,3.8,4,7.7,4s3.8-4,7.7-4"/>
	</g>
	
		<line fill="none" stroke="#333333" stroke-width="2" stroke-linecap="round" stroke-linejoin="round" stroke-miterlimit="10" x1="25" y1="31" x2="42" y2="31"/>
	
		<line fill="none" stroke="#333333" stroke-width="2" stroke-linecap="round" stroke-linejoin="round" stroke-miterlimit="10" x1="25" y1="37" x2="42" y2="37"/>
</g>
</svg>
