<?xml version="1.0" encoding="utf-8"?>
<!-- Generator: Adobe Illustrator 17.1.0, SVG Export Plug-In . SVG Version: 6.00 Build 0)  -->
<!DOCTYPE svg PUBLIC "-//W3C//DTD SVG 1.1//EN" "http://www.w3.org/Graphics/SVG/1.1/DTD/svg11.dtd">
<svg version="1.1" id="Layer_1" xmlns="http://www.w3.org/2000/svg" xmlns:xlink="http://www.w3.org/1999/xlink" x="0px" y="0px"
	 width="64px" height="64px" viewBox="0 0 64 64" enable-background="new 0 0 64 64" xml:space="preserve">
<g>
	<path fill="none" stroke="#333333" stroke-width="2" stroke-linecap="round" stroke-linejoin="round" stroke-miterlimit="10" d="
		M31.6,11.2c0.2-0.1,0.6-0.1,0.9,0L52,21.6H12L31.6,11.2z"/>
	<path fill="none" stroke="#333333" stroke-width="2" stroke-linecap="round" stroke-linejoin="round" stroke-miterlimit="10" d="
		M31.7,15c0.1-0.1,0.4-0.1,0.5,0l12,6.3H19.8L31.7,15z"/>
	<path fill="none" stroke="#333333" stroke-width="2" stroke-linecap="round" stroke-linejoin="round" stroke-miterlimit="10" d="
		M11.3,21.6h41.4c0.5,0,0.9,0.4,0.9,0.8v2.2c0,0.4-0.4,0.8-0.9,0.8H11.3c-0.5,0-0.9-0.4-0.9-0.8v-2.2C10.4,21.9,10.8,21.6,11.3,21.6
		z"/>
	<path fill="none" stroke="#333333" stroke-width="2" stroke-linecap="round" stroke-linejoin="round" stroke-miterlimit="10" d="
		M11.3,45.3h41.4c0.5,0,0.9,0.4,0.9,0.8v2.2c0,0.4-0.4,0.8-0.9,0.8H11.3c-0.5,0-0.9-0.4-0.9-0.8v-2.2C10.4,45.7,10.8,45.3,11.3,45.3
		z"/>
	<path fill="none" stroke="#333333" stroke-width="2" stroke-linecap="round" stroke-linejoin="round" stroke-miterlimit="10" d="
		M9.3,49.1h45.4c0.6,0,1,0.4,1,0.8v2.2c0,0.4-0.5,0.8-1,0.8H9.3c-0.6,0-1-0.4-1-0.8v-2.2C8.2,49.5,8.7,49.1,9.3,49.1z"/>
	<g>
		<path fill="none" stroke="#333333" stroke-width="2" stroke-linecap="round" stroke-linejoin="round" stroke-miterlimit="10" d="
			M19.9,28.7H14c-0.6,0-1-0.4-1-1v-2.3h7.8v2.3C20.9,28.3,20.4,28.7,19.9,28.7z"/>
		<path fill="none" stroke="#333333" stroke-width="2" stroke-linecap="round" stroke-linejoin="round" stroke-miterlimit="10" d="
			M14,42h5.8c0.6,0,1,0.4,1,1v2.3H13V43C13,42.4,13.5,42,14,42z"/>
		
			<rect x="14.2" y="28.7" fill="none" stroke="#333333" stroke-width="2" stroke-linecap="round" stroke-linejoin="round" stroke-miterlimit="10" width="5.6" height="13.3"/>
	</g>
	<g>
		<path fill="none" stroke="#333333" stroke-width="2" stroke-linecap="round" stroke-linejoin="round" stroke-miterlimit="10" d="
			M51,28.7h-5.8c-0.6,0-1-0.4-1-1v-2.3H52v2.3C52,28.3,51.6,28.7,51,28.7z"/>
		<path fill="none" stroke="#333333" stroke-width="2" stroke-linecap="round" stroke-linejoin="round" stroke-miterlimit="10" d="
			M45.2,42H51c0.6,0,1,0.4,1,1v2.3h-7.8V43C44.2,42.4,44.7,42,45.2,42z"/>
		
			<rect x="45.4" y="28.7" fill="none" stroke="#333333" stroke-width="2" stroke-linecap="round" stroke-linejoin="round" stroke-miterlimit="10" width="5.6" height="13.3"/>
	</g>
	<g>
		<path fill="none" stroke="#333333" stroke-width="2" stroke-linecap="round" stroke-linejoin="round" stroke-miterlimit="10" d="
			M34.9,28.7h-5.8c-0.6,0-1-0.4-1-1v-2.3h7.8v2.3C35.9,28.3,35.5,28.7,34.9,28.7z"/>
		<path fill="none" stroke="#333333" stroke-width="2" stroke-linecap="round" stroke-linejoin="round" stroke-miterlimit="10" d="
			M29.1,42h5.8c0.6,0,1,0.4,1,1v2.3h-7.8V43C28.1,42.4,28.6,42,29.1,42z"/>
		
			<rect x="29.3" y="28.7" fill="none" stroke="#333333" stroke-width="2" stroke-linecap="round" stroke-linejoin="round" stroke-miterlimit="10" width="5.6" height="13.3"/>
	</g>
</g>
</svg>
