<?xml version="1.0" encoding="utf-8"?>
<!-- Generator: Adobe Illustrator 17.1.0, SVG Export Plug-In . SVG Version: 6.00 Build 0)  -->
<!DOCTYPE svg PUBLIC "-//W3C//DTD SVG 1.1//EN" "http://www.w3.org/Graphics/SVG/1.1/DTD/svg11.dtd">
<svg version="1.1" id="Layer_1" xmlns="http://www.w3.org/2000/svg" xmlns:xlink="http://www.w3.org/1999/xlink" x="0px" y="0px"
	 width="64px" height="64px" viewBox="0 0 64 64" enable-background="new 0 0 64 64" xml:space="preserve">
<g>
	<path fill="none" stroke="#333333" stroke-width="2" stroke-linecap="round" stroke-linejoin="round" stroke-miterlimit="10" d="
		M48.9,21.6c0-1.4-1.1-2.5-2.4-2.6c1.4-0.1,2.4-1.6,2.4-3c0-1.4-1.2-3-2.6-3H46v-0.3c0-1.4-1.8-2.6-3.2-2.6c-1.4,0-2.9,1.2-2.9,2.6
		c0-1.4-1.3-2.6-2.7-2.6c-1.4,0-2.6,1.2-2.6,2.6c0-1.4-1.2-2.6-2.6-2.6c-1.4,0-2.6,1.2-2.6,2.6c0-1.4-1.2-2.6-2.6-2.6
		c-1.4,0-2.6,1.2-2.6,2.6c0-1.4-1.3-2.6-2.7-2.6c-1.4,0-2.7,1.2-2.7,2.6V13h-1.3c-1.4,0-2.6,1.6-2.6,3c0,1.4,1.1,2.7,2.4,2.8
		c-1.4,0.1-2.4,1.3-2.4,2.7s1.1,2.6,2.4,2.6c-1.4,0.1-2.4,1.2-2.4,2.6s1.1,2.5,2.4,2.6c-1.4,0.1-2.4,1.2-2.4,2.6
		c0,1.4,1.1,2.5,2.4,2.6c-1.4,0.1-2.4,1.2-2.4,2.6c0,1.4,1.1,2.5,2.4,2.6c-1.4,0.1-2.4,1.2-2.4,2.6c0,1.4,1.1,2.5,2.4,2.6
		c-1.4,0.1-2.4,1.6-2.4,3c0,1.4,1.2,3,2.6,3H19v0.3c0,1.4,1.3,2.6,2.7,2.6c1.4,0,2.6-1.2,2.6-2.6c0,1.4,1.2,2.6,2.6,2.6
		c1.4,0,2.6-1.2,2.6-2.6c0,1.4,1.2,2.6,2.6,2.6c1.4,0,2.6-1.2,2.6-2.6c0,1.4,1.2,2.6,2.6,2.6c1.4,0,2.6-1.2,2.6-2.6
		c0,1.4,1.8,2.6,3.2,2.6c1.4,0,3.2-1.2,3.2-2.6V51h0.3c1.4,0,2.6-1.6,2.6-3c0-1.4-1.1-2.7-2.4-2.8c1.4-0.1,2.4-1.3,2.4-2.7
		c0-1.4-1.1-2.6-2.4-2.6c1.4-0.1,2.4-1.2,2.4-2.6c0-1.4-1.1-2.5-2.4-2.6c1.4-0.1,2.4-1.2,2.4-2.6c0-1.4-1.1-2.5-2.4-2.6
		c1.4-0.1,2.4-1.2,2.4-2.6c0-1.4-1.1-2.5-2.4-2.6C47.9,24.1,48.9,23,48.9,21.6z"/>
	<g>
		<g>
			<circle fill="#333333" cx="26.4" cy="24.3" r="1.5"/>
			<circle fill="#333333" cx="37.6" cy="24.3" r="1.5"/>
		</g>
		<g>
			<circle fill="#333333" cx="26.4" cy="32" r="1.5"/>
			<circle fill="#333333" cx="37.6" cy="32" r="1.5"/>
		</g>
		<g>
			<circle fill="#333333" cx="26.4" cy="39.8" r="1.5"/>
			<circle fill="#333333" cx="37.6" cy="39.8" r="1.5"/>
		</g>
	</g>
</g>
</svg>
