<?xml version="1.0" encoding="utf-8"?>
<!-- Generator: Adobe Illustrator 17.1.0, SVG Export Plug-In . SVG Version: 6.00 Build 0)  -->
<!DOCTYPE svg PUBLIC "-//W3C//DTD SVG 1.1//EN" "http://www.w3.org/Graphics/SVG/1.1/DTD/svg11.dtd">
<svg version="1.1" id="Layer_1" xmlns="http://www.w3.org/2000/svg" xmlns:xlink="http://www.w3.org/1999/xlink" x="0px" y="0px"
	 width="64px" height="64px" viewBox="0 0 64 64" enable-background="new 0 0 64 64" xml:space="preserve">
<g>
	<g>
		
			<line fill="none" stroke="#333333" stroke-width="2" stroke-linecap="round" stroke-linejoin="round" stroke-miterlimit="10" x1="20" y1="50" x2="49" y2="50"/>
		
			<line fill="none" stroke="#333333" stroke-width="2" stroke-linecap="round" stroke-linejoin="round" stroke-miterlimit="10" x1="42" y1="55" x2="54" y2="55"/>
		
			<line fill="none" stroke="#333333" stroke-width="2" stroke-linecap="round" stroke-linejoin="round" stroke-miterlimit="10" x1="41" y1="45" x2="54" y2="45"/>
		<path fill="none" stroke="#333333" stroke-width="2" stroke-linecap="round" stroke-linejoin="round" stroke-miterlimit="10" d="
			M49.1,54.9H15.4c-2.7,0-4.9-2.2-4.9-4.9v-0.2c0-2.7,2.2-4.9,4.9-4.9h33.8V54.9z"/>
	</g>
	<g>
		
			<line fill="none" stroke="#333333" stroke-width="2" stroke-linecap="round" stroke-linejoin="round" stroke-miterlimit="10" x1="23" y1="40" x2="48" y2="40"/>
		
			<line fill="none" stroke="#333333" stroke-width="2" stroke-linecap="round" stroke-linejoin="round" stroke-miterlimit="10" x1="41" y1="45" x2="52" y2="45"/>
		
			<line fill="none" stroke="#333333" stroke-width="2" stroke-linecap="round" stroke-linejoin="round" stroke-miterlimit="10" x1="40" y1="35" x2="52" y2="35"/>
		<path fill="none" stroke="#333333" stroke-width="2" stroke-linecap="round" stroke-linejoin="round" stroke-miterlimit="10" d="
			M48.1,44.9H17.4c-2.7,0-4.9-2.2-4.9-4.9v-0.2c0-2.7,2.2-4.9,4.9-4.9h30.8V44.9z"/>
	</g>
	<g>
		<path fill="none" stroke="#333333" stroke-width="2" stroke-linecap="round" stroke-linejoin="round" stroke-miterlimit="10" d="
			M29.9,14.5c1.2,0.6,2.5,0.6,3.7,0c0.9-0.5,2.3-0.7,4.1-0.1c5.3,1.6,5.8,8.3,1.6,16.7c-1.5,2.9-3.4,2.7-5,1.8
			c-1.6-0.9-3.6-0.9-5.2,0c-1.6,0.9-3.5,1.2-5-1.8C20,22.7,20.4,16,25.7,14.4C27.6,13.8,28.9,14,29.9,14.5z"/>
		<path fill="none" stroke="#333333" stroke-width="2" stroke-linecap="round" stroke-linejoin="round" stroke-miterlimit="10" d="
			M32.1,14.9c0,0-2.2-2.9,2.4-5.8"/>
	</g>
</g>
</svg>
