<?xml version="1.0" encoding="utf-8"?>
<!-- Generator: Adobe Illustrator 17.1.0, SVG Export Plug-In . SVG Version: 6.00 Build 0)  -->
<!DOCTYPE svg PUBLIC "-//W3C//DTD SVG 1.1//EN" "http://www.w3.org/Graphics/SVG/1.1/DTD/svg11.dtd">
<svg version="1.1" id="Layer_1" xmlns="http://www.w3.org/2000/svg" xmlns:xlink="http://www.w3.org/1999/xlink" x="0px" y="0px"
	 width="64px" height="64px" viewBox="0 0 64 64" enable-background="new 0 0 64 64" xml:space="preserve">
<g>
	
		<rect x="24" y="37" fill="none" stroke="#333333" stroke-width="2" stroke-linecap="round" stroke-linejoin="round" stroke-miterlimit="10" width="17" height="9"/>
	<path fill="none" stroke="#333333" stroke-width="2" stroke-linecap="round" stroke-linejoin="round" stroke-miterlimit="10" d="
		M24,50h-6c0,0,0-7.6,0-10.5c0-3.3-2-4.8-5.6-4.8c-2.5,0-4.7-7.3,4-7.3C24.2,27.4,24,39,24,39V50z"/>
	<path fill="none" stroke="#333333" stroke-width="2" stroke-linecap="round" stroke-linejoin="round" stroke-miterlimit="10" d="
		M24,50h-6c0,0,0-7.6,0-10.5c0-3.3-2-4.8-5.6-4.8c-2.5,0-4.7-7.3,4-7.3C24.2,27.4,24,39,24,39V50z"/>
	<path fill="none" stroke="#333333" stroke-width="2" stroke-linecap="round" stroke-linejoin="round" stroke-miterlimit="10" d="
		M41,50h6c0,0,0-7.6,0-10.5c0-3.3,1.4-4.8,4.9-4.8c2.5,0,5-7.3-3.7-7.3C40.5,27.4,41,39,41,39V50z"/>
	<path fill="none" stroke="#333333" stroke-width="2" stroke-linecap="round" stroke-linejoin="round" stroke-miterlimit="10" d="
		M44.1,14H19.9c-1.5,0-1.9,1.7-1.9,3.1v10.4c5,0.9,5.3,7.4,5.5,9.4h17.1c0.2-2,1.5-8.6,6.5-9.5V17.1C47,15.7,45.6,14,44.1,14z"/>
</g>
<g>
	
		<rect x="24" y="37" fill="none" stroke="#333333" stroke-width="2" stroke-linecap="round" stroke-linejoin="round" stroke-miterlimit="10" width="17" height="9"/>
	<path fill="none" stroke="#333333" stroke-width="2" stroke-linecap="round" stroke-linejoin="round" stroke-miterlimit="10" d="
		M24,50h-6c0,0,0-7.6,0-10.5c0-3.3-2-4.8-5.6-4.8c-2.5,0-4.7-7.3,4-7.3C24.2,27.4,24,39,24,39V50z"/>
	<path fill="none" stroke="#333333" stroke-width="2" stroke-linecap="round" stroke-linejoin="round" stroke-miterlimit="10" d="
		M24,50h-6c0,0,0-7.6,0-10.5c0-3.3-2-4.8-5.6-4.8c-2.5,0-4.7-7.3,4-7.3C24.2,27.4,24,39,24,39V50z"/>
	<path fill="none" stroke="#333333" stroke-width="2" stroke-linecap="round" stroke-linejoin="round" stroke-miterlimit="10" d="
		M41,50h6c0,0,0-7.6,0-10.5c0-3.3,1.4-4.8,4.9-4.8c2.5,0,5-7.3-3.7-7.3C40.5,27.4,41,39,41,39V50z"/>
	<path fill="none" stroke="#333333" stroke-width="2" stroke-linecap="round" stroke-linejoin="round" stroke-miterlimit="10" d="
		M44.1,14H19.9c-1.5,0-1.9,1.7-1.9,3.1v10.4c5,0.9,5.3,7.4,5.5,9.4h17.1c0.2-2,1.5-8.6,6.5-9.5V17.1C47,15.7,45.6,14,44.1,14z"/>
</g>
</svg>
