<?xml version="1.0" encoding="utf-8"?>
<!-- Generator: Adobe Illustrator 17.1.0, SVG Export Plug-In . SVG Version: 6.00 Build 0)  -->
<!DOCTYPE svg PUBLIC "-//W3C//DTD SVG 1.1//EN" "http://www.w3.org/Graphics/SVG/1.1/DTD/svg11.dtd">
<svg version="1.1" id="Layer_1" xmlns="http://www.w3.org/2000/svg" xmlns:xlink="http://www.w3.org/1999/xlink" x="0px" y="0px"
	 width="64px" height="64px" viewBox="0 0 64 64" enable-background="new 0 0 64 64" xml:space="preserve">
<g>
	
		<circle fill="none" stroke="#333333" stroke-width="2" stroke-linecap="round" stroke-linejoin="round" stroke-miterlimit="10" cx="32" cy="32" r="22.8"/>
	<g>
		
			<circle fill="none" stroke="#333333" stroke-width="2" stroke-linecap="round" stroke-linejoin="round" stroke-miterlimit="10" cx="26" cy="34" r="5.5"/>
		<path fill="none" stroke="#333333" stroke-width="2" stroke-linecap="round" stroke-linejoin="round" stroke-miterlimit="10" d="
			M36.9,34c0,7.8-3.1,12.6-10.9,12.6c-7.8,0-13-10.2-13-18c0-7.8,5.2-7.3,13-7.3C33.8,21.2,36.9,26.2,36.9,34z"/>
	</g>
	<path fill="none" stroke="#333333" stroke-width="2" stroke-linecap="round" stroke-linejoin="round" stroke-miterlimit="10" d="
		M31.7,51.2c-1.3,0-2.5-0.9-2.7-2.3c-0.3-1.5,0.7-2.9,2.2-3.2c11.9-2.2,10.8-12.9,10.7-13.4c-0.2-1.5,0.9-2.9,2.4-3
		c1.5-0.2,2.9,0.9,3,2.4c0.7,5.6-1.6,17-15.2,19.4C32,51.2,31.8,51.2,31.7,51.2z"/>
	<g>
		<path fill="none" stroke="#333333" stroke-width="2" stroke-linecap="round" stroke-linejoin="round" stroke-miterlimit="10" d="
			M45,29.4l-6.3-14.9c-0.3-0.6-1-0.9-1.6-0.5l-11.7,7.2"/>
		
			<line fill="none" stroke="#333333" stroke-width="2" stroke-linecap="round" stroke-linejoin="round" stroke-miterlimit="10" x1="36.8" y1="31.8" x2="41.9" y2="33.5"/>
		<path fill="none" stroke="#333333" stroke-width="2" stroke-linecap="round" stroke-linejoin="round" stroke-miterlimit="10" d="
			M36.2,14.3c-1.6-1.5-4.1-1.4-5.6,0.2c-1.6-1.5-4.1-1.4-5.6,0.2c-0.9,0.9-1.2,2.2-1,3.4c-1,0.1-1.9,0.5-2.6,1.3
			c-0.5,0.6-0.9,1.2-1,1.9"/>
		<path fill="none" stroke="#333333" stroke-width="2" stroke-linecap="round" stroke-linejoin="round" stroke-miterlimit="10" d="
			M40.3,15.6c2.2-0.2,4.2,1.3,4.4,3.5c2.2-0.2,4.2,1.3,4.4,3.5c0.1,1.3-0.4,2.5-1.2,3.3c0.7,0.6,1.3,1.5,1.4,2.6
			c0.1,1.3-0.4,2.6-1.3,3.4"/>
	</g>
</g>
</svg>
